<svg id="图层_1" data-name="图层 1" xmlns="http://www.w3.org/2000/svg" viewBox="0 0 1169.78 595.41"><defs><style>.cls-1{fill:#fdfdfd;}.cls-2{fill:#d0d0d0;}.cls-3{fill:#d36aa9;}.cls-4{fill:#d371ac;}.cls-5{fill:#d370ac;}.cls-6{fill:#090909;}.cls-7{fill:#070707;}.cls-8{fill:#2c2c2c;}.cls-9{fill:#fe0505;}.cls-10{fill:#fcfafb;}.cls-11{fill:#fefdfe;}.cls-12{fill:#fefdfd;}.cls-13{fill:#fdfcfd;}</style></defs><title>loge</title><path class="cls-1" d="M19.1,547.9v-91H21c-.33,30.32-.45,60.65.09,91Z" transform="translate(-19.1 -16.23)"/><path class="cls-2" d="M1185.39,75.05l3.49,1.06v2c-.13.09-.38.23-.36.28a4.3,4.3,0,0,0,.36.71v73c-5.14,1.77-10.43.67-15.65.73-.85,0-1.35-.84-1.32-1.78,4.27,1,8.62.11,12.9.49,2.48.22,3.12-.76,3.08-3.1-.12-7.81.26-15.63-.11-23.42C1187,108.34,1190.19,91.5,1185.39,75.05Z" transform="translate(-19.1 -16.23)"/><path class="cls-2" d="M1188.88,548.9l-1.42-.43c.13-15.14.36-30.28.37-45.42,0-22.65-.11-45.31-.18-68l1.23-.14Z" transform="translate(-19.1 -16.23)"/><path class="cls-2" d="M21,82.09H19.1v-3l3.87-1C23.17,79.85,22.22,81,21,82.09Z" transform="translate(-19.1 -16.23)"/><path class="cls-2" d="M21,456.93H19.1v-2c1.67.46,3.38-2.07,5,.09Z" transform="translate(-19.1 -16.23)"/><path class="cls-2" d="M19.1,547.9h2a2.34,2.34,0,0,1,1,3h-3Z" transform="translate(-19.1 -16.23)"/><path class="cls-1" d="M1188.88,79.1a4.3,4.3,0,0,1-.36-.71s.23-.19.36-.28Z" transform="translate(-19.1 -16.23)"/><path class="cls-3" d="M399,391.76c-2.43-11.76,1.48-26,3.52-40.17,1.73-12.06,5.29-24.08,9.43-35.75,3.1-8.73,7.05-17,10.88-25.42A223.54,223.54,0,0,1,435.69,267a73.69,73.69,0,0,1,10.85-13.54C458.15,241.92,469.46,230,484.31,222c10.7-5.78,21.29-11.75,32.77-15.55,16.67-5.52,33.7-9.89,51.53-9.56,10.48.19,21.07-.92,31.38,1.07,10,1.94,19.9,4.76,29.75,7.65,15.21,4.47,28.67,12.3,41.94,20.53,9.38,5.81,14.64,14.84,17.22,25.3,1.43,5.78-1.08,11.16-4,16-6.32,10.54-13.36,20.62-18.78,31.72a268.12,268.12,0,0,0-16.26,40.66c-2.65,8.85-5.75,17.67-7.19,26.73-1,6.37-3.37,12.39-3.7,18.93-.68,13.06-4.22,26-2.76,39.14,1.53,13.72,2.37,27.48,7.34,40.73,2.55,6.8,6.21,13.39,7.82,20.25,3.66,15.62,4.55,32-8.63,44.42-18.89,17.85-40.3,31.15-65.12,38.21a113.19,113.19,0,0,1-43.92,3.1,240.58,240.58,0,0,1-25.81-4.77c-6.69-1.51-12.91-5.09-19.33-7.79-15.56-6.55-28.67-16.7-40.52-28.44-7.66-7.59-13.56-16.65-19.52-25.62-8.07-12.14-13.6-25.48-18.6-39-2.38-6.44-2.93-13.56-5.28-20-3-8.24-1.78-17.14-4.78-25.28a16.5,16.5,0,0,1-.9-5.87C399,407.93,399,401.27,399,391.76Zm124.2,27.71c0,10.5,4.61,17.83,14.17,22,5,2.18,10.57,2.46,14.85-.71,12.61-9.35,14.25-14.76,10.71-29.93-2-8.83-13.9-16.12-21.5-14.36A23.18,23.18,0,0,0,523.2,419.47Z" transform="translate(-19.1 -16.23)"/><path class="cls-4" d="M962.05,319.49c1.57.91,2.53-.42,3.59-1,11.74-6.6,24.35-11.33,36.75-16.37,18.66-7.59,37.25-15.78,57.18-19.52a102.79,102.79,0,0,1,36.77-.26c12,2.12,21.91,15.57,22.3,27.73.4,12.79-5.2,22.2-14,31-10.33,10.31-21.88,18.84-34,26.7a256.86,256.86,0,0,1-25.16,14.2c-16.2,8.1-32.49,16-49,23.52-17.09,7.75-34.48,14.87-51.73,22.29-20.44,8.78-41,17.38-61.27,26.46-17.74,7.92-35.22,16.47-53.9,22-11.14,3.31-22.64,4.63-34.21,6-17,2-33.88,1.78-50.81,1.47-17.73-.32-33.64-5.8-46.87-18.64-10.25-9.95-18.74-20.78-22.17-34.74-3.19-13-6.63-26.4-4.27-39.7,2.23-12.59,3.33-25.35,7.16-37.81a390.9,390.9,0,0,1,28-67.62c7.61-14.46,16.93-28,26.51-41.35,5.81-8.08,12.86-15.09,18.87-23,14.85-19.44,34.44-34.11,51.46-51.35,9.23-9.36,20.5-16.12,30.55-24.33,8.56-7,18.16-12.2,27.07-18.45a311.78,311.78,0,0,1,47.07-26.83c12.72-6,25.27-12.38,38.33-17.5,10.3-4,20.49-8.46,31.43-11.09,10.22-2.45,20.2-6.23,30.56-8.13,7.11-1.31,14.33-2.67,21.27-4.29,17.21-4,34.48-2.53,51.68-2.43,16.55.1,32,5,45.37,15.53,9,7.12,14.21,16.46,15.2,27.52,1,11.47.94,23.12-2.18,34.46-4.54,16.48-12,31.5-21.29,45.84-14.36,22.22-31.7,41.71-51,59.69a320.74,320.74,0,0,1-33.14,27.05c-12.32,8.71-24.18,18.06-37.06,26C985.67,299.6,975.7,308.8,964.3,316,963.15,316.74,961.52,317.54,962.05,319.49ZM678.68,399.27A77.56,77.56,0,0,0,689,444.33c10.4,18,26,28.4,46.43,31.91,18.73,3.22,37.41,2.28,56.16.08,20.75-2.45,40.9-7,60.1-15.44C881,448.07,910.12,435,939.52,422.57c43-18.26,86.19-36.28,126.41-60.39,16.06-9.62,30.47-21.1,41.67-36.59,11.09-15.33-.35-36-16.7-38.4a73.42,73.42,0,0,0-23.39.24c-34,6.11-65,20-95.29,36.06a77,77,0,0,1-16,6.81c-4.94,1.33-7-1.84-9.19-5s1-4.46,2.64-5.95a136.56,136.56,0,0,1,14.22-11.74c26.11-18.61,52.51-36.95,78.22-56.17,21.55-16.11,39.91-35.69,56.57-56.8,18.25-23.12,33.37-47.81,37-77.82,2.19-18.35-2.74-34.91-20.89-44.8-13.85-7.55-29-9.56-44.32-10-24.45-.69-48.33,3.53-71.9,9.56-38.77,9.92-75.1,25.82-109.76,45.65-30.83,17.64-60.49,36.94-86.66,61.17-18.08,16.74-36.25,33.42-51.7,52.73-23,28.75-42.18,59.83-55.67,94.14C685.55,348.68,677.51,372.5,678.68,399.27Z" transform="translate(-19.1 -16.23)"/><path class="cls-5" d="M311.1,348.19c4.51-3.08,10.41-3.24,14.35-8.06,1.69-2.06,6.52-1.84,9.48-3.63,9.26-5.59,19.51-9,29.17-13.76a14.84,14.84,0,0,1,6.74-1.55c3.89,0,5.86,1.66,5.87,5.69,0,8.68-1.66,17-3.61,25.47-1.89,8.16-2.53,16.66-3.16,25-.47,6.3-.08,12.66,0,19,.05,5.52-2.26,9.55-7.21,12.1C345.85,417.16,329,425.91,311.89,434c-22.81,10.81-45.32,22.26-68.08,33.2-10.63,5.11-20.39,12-31.63,15.77a277.51,277.51,0,0,1-44.37,11c-12.92,2.09-25.84,1.8-38.79,1.75-19.58-.08-35.35-8.37-47.44-23.44C72.47,461,68.23,447.68,68.45,433.14c.18-11.45-1.27-23,1.08-34.34S74,375.88,78,364.67s9-22.27,13.16-33.54a58.31,58.31,0,0,1,6.39-12.38c6.88-10.18,11.92-21.6,19.44-31.18,6.63-8.44,12.54-17.42,19.65-25.57a385.83,385.83,0,0,1,42.88-42.21c16.29-13.67,32-28.2,50.71-39,13.38-7.71,26.88-15.07,40.66-22a366.05,366.05,0,0,1,67.36-26.55,191.69,191.69,0,0,1,63-6.87c11.94.72,23.55,3.61,33.05,11.23A38.08,38.08,0,0,1,448.84,164,86.26,86.26,0,0,1,447,187.7a122.09,122.09,0,0,1-12.41,33.41,210.71,210.71,0,0,1-23.77,35.53c-9,10.71-17.87,21.46-28.09,31-9.45,8.82-20.14,16.18-30.13,24.36s-21,15.21-30.33,24.23c-3,.32-5.29,1.68-6.23,4.75-3,1.09-4.72,3.66-6.81,5.8a5,5,0,0,0-4.66,3,1.19,1.19,0,0,0,.45,1.62l.1.05c2,.6,3.14-1.49,4.9-1.83C310.43,349.56,310.73,348.69,311.1,348.19ZM73.74,421.43c-.45,10.47.48,20.67,4.51,30.41,7,17,17.92,30,36.31,35,12.31,3.38,24.86,3.74,37.59,2.5,21.15-2.06,41.9-5.85,61.23-14.86,20.93-9.76,41.38-20.56,62.23-30.48,27.49-13.08,54.86-26.36,81.67-40.79,3.92-2.11,5.34-4.78,5.24-9.15a207.51,207.51,0,0,1,7.28-60.17c.48-1.74,1.42-3.82.08-5.24-1.71-1.81-3.82-.13-5.52.54-15.36,6-29.74,14-44.24,21.71-6,3.21-11.51,7.39-18.14,9.38-3.25,1-6.07.26-8-2.46s-1-5.55,1-7.8a59.19,59.19,0,0,1,7.75-7.76c12.89-10.24,25.74-20.53,38.93-30.37,27.2-20.3,52.28-42.7,72-70.62,13.54-19.18,24.81-39.29,28.17-63.12,2.95-20.9-4.95-35.28-24.73-42.84-6.41-2.45-13.15-3.3-20-3.61-31.54-1.42-61.36,6.17-90.41,17.43a415,415,0,0,0-61.22,30.08A410.92,410.92,0,0,0,154.15,252c-22.68,24.2-41.67,50.88-56.26,80.73C84.13,360.85,74.47,389.93,73.74,421.43Z" transform="translate(-19.1 -16.23)"/><path class="cls-5" d="M833.28,572c-11.65.18-23.41.84-34.87-1.24-12-2.17-23.93-4.86-35.29-10-10.19-4.6-20.24-9.32-29-16.15-12.51-9.71-24-20.46-33-33.73-4.07-6.07-8.27-12-10.78-19-.62-1.72-2.11-3.44-.77-5.06,1.55-1.85,3.76-.86,5.53,0,8.27,3.9,16.27,8.47,24.78,11.72,8.8,3.36,18.2,4.75,27.64,5.61,10.6,1,21.15-.11,31.72,0,11.75.11,22.91-3.57,34.36-5,11-1.35,20.67-6.85,31.46-8.45a4,4,0,0,0,1.43-.39c11.42-6.66,24.53-9.11,36.38-14.65s23.29-11.26,35.63-15.25c10-3.25,20.27-5.91,30.2-9.45,8.41-3,17-2.54,25.58-2.77,16.14-.44,25.24,6.28,31.71,20.7,7.37,16.44.44,29.67-8.56,42.48-8.57,12.19-20.61,20.25-33.23,27.91a175,175,0,0,1-36.31,16.2c-19,6.27-38.31,11.68-58.31,14.53C857.43,571.74,845.4,571.88,833.28,572Zm-3.85-5.87c15.81.53,32.22-1.79,48.64-4.81,28.12-5.19,55.35-13,80.56-26.66,14.62-7.9,27.35-18.42,36.56-32.54,6.29-9.63,9.39-20,4.38-31.16-6.19-13.77-18.78-19.36-35.33-16.82-22.76,3.49-44.12,11.3-65,20.56-33.5,14.88-67.37,28.46-104,33.83-20.71,3.05-41.33,3.31-62-.3-9.26-1.61-18-4.55-26.73-7.76-1.09-.4-2.36-1-3.25,0s.12,1.9.65,2.7c10.59,16,23.39,29.92,39.72,40.16,25.91,16.24,54.27,23.84,85.8,22.78Z" transform="translate(-19.1 -16.23)"/><path class="cls-6" d="M1187.65,435.09c.07,22.65.2,45.31.18,68,0,15.14-.24,30.28-.37,45.42h0c-1.53.19-1.68,1.18-1.42,2.42-9.46,39.37-44.18,61.13-80.49,60.68-25.63-.32-51.27-.14-76.91,0-3.81,0-5.1-.81-5-4.89.33-9.67.41-10,10.25-10,25.64,0,51.29.24,76.92-.16,14.08-.21,27.06-4.29,37.78-14.12,8-7.32,16.24-14.41,19.14-25.48,1.75-6.69,4.3-13.15,4.26-20.32-.17-30.62-.07-61.25-.07-91.87,0-8.65,1.11-9.76,9.72-9.76Z" transform="translate(-19.1 -16.23)"/><path class="cls-5" d="M378.73,482.51c2.2,11.19-3.81,19.31-9.52,27.52-12.5,18-30.46,29.06-49.91,37.55a380.74,380.74,0,0,1-51.64,17.8c-25.14,6.92-50.8,7.93-76.52,6.28A125,125,0,0,1,119.7,544.2C106.37,533.5,94.51,521,85.79,506c-.16-.29-.34-.57-.49-.87-1.2-2.39-2.78-5.44-.9-7.36,2-2.1,4.46.53,6.6,1.68a106.63,106.63,0,0,0,51.12,12.72c8,0,16,.43,24-.4,8.19-.86,16.29-2.83,24.35-4.65A273.28,273.28,0,0,0,232,493.88c9.24-3.69,18.06-8,26.93-12.44,17.59-8.86,35.26-17.73,53.88-24.36,13.39-4.77,27.13-7.48,41.52-6.17,8.28.76,13.62,5.7,18.44,11.56S380.72,474.8,378.73,482.51ZM210.47,566.16c7.78.62,16.49-.17,25-1.48,35-5.42,68.8-15.11,99.64-33.2,16.9-9.9,30.62-22.73,37-42.08,4-12.08-4.15-28.32-16.58-31.47-9.27-2.35-18.54-.71-27.59,1.48-17.88,4.34-34.56,11.92-51,20-21.18,10.46-42.43,20.71-65,27.92-20.21,6.46-40.82,10.84-62.06,11.16-15.64.23-31.24-.85-46.1-6.65-1.29-.5-2.92-1.59-4.13,0s.45,2.76,1.25,3.87a115.12,115.12,0,0,0,25.65,25.64C151.32,559.23,179.28,566.63,210.47,566.16Z" transform="translate(-19.1 -16.23)"/><path class="cls-6" d="M22.09,550.9a2.34,2.34,0,0,0-1-3c-.54-30.32-.42-60.65-.09-91l3.1-1.9H35.92l1.1,1a1.08,1.08,0,0,0,.09.86,18.92,18.92,0,0,0-.47,2.89v76.68a24,24,0,0,0,.5,3.38,13.34,13.34,0,0,0,.44,5.92,1.77,1.77,0,0,0,.52,2.09l.49,1.9A4.27,4.27,0,0,0,40,553.91l.44,2.91c0,1.9,1.12,3.2,2.43,4.39a.52.52,0,0,0,.33.65c-.1,1.14.64,1.89,1.26,2.69a5.34,5.34,0,0,0,1.79,3.29c.19,1.85,1.41,2.88,2.9,3.7a51.3,51.3,0,0,0,9.51,9.57A2.9,2.9,0,0,0,61.05,583l2.6,2.18a2.39,2.39,0,0,0,2.48,1.59l1.34.6a3,3,0,0,0,2.67,1.36l1.33.65c.67.87,1.4,1.63,2.65,1.42a40,40,0,0,0,16,5,1.62,1.62,0,0,0,2.08.51c3.59,1,7.27.5,10.9.51,25.79.07,51.59.14,77.38-.07,4.26,0,5.75.79,5.56,5.38-.41,9.5-.13,9.51-9.8,9.51H104.36c-6.8,0-13.62.18-20.27-1.68A1.66,1.66,0,0,0,82,609.5l-2.89-.63a1.59,1.59,0,0,0-2.08-.62L64.66,603.5a2.43,2.43,0,0,0-2.61-1.44l-6.44-3.5a3.34,3.34,0,0,0-2.48-1.74l-2.64-2.16a5.16,5.16,0,0,0-3.33-2.89c-5.18-5.49-11-10.44-15.1-16.86a3,3,0,0,0-1.51-2.63L28,567.91c.17-1.19-.56-1.95-1.31-2.7-.07-2.27-1.17-4.21-2-6.23a2.45,2.45,0,0,0-.91-2.77Z" transform="translate(-19.1 -16.23)"/><path class="cls-6" d="M21,82.09a4.38,4.38,0,0,0,2-4l1-7A1.59,1.59,0,0,0,24.68,69c.63-1.76,1.25-3.53,1.87-5.29A3.56,3.56,0,0,0,28,61.07c.26-.42.51-.85.76-1.28.8-1.53,2.24-2.79,2.3-4.69,2.31-4.89,6.66-8.1,10-12.15,4.9-3.06,8.73-7.27,12.48-11.57l2.6-2.19a4.05,4.05,0,0,0,2.64-1.45l6.24-3a2.54,2.54,0,0,0,2.63-1.26L73.08,21a1.91,1.91,0,0,0,2-1c3.82,0,7.3-1.5,10.91-2.44a2.08,2.08,0,0,0,2.09-.53l89.8-.06c8.71,0,8.73,0,8.68,9,0,1.92.65,4.06-1.41,5.48q-44.85-.6-89.69.05a16.47,16.47,0,0,0-3.34.74,16.36,16.36,0,0,0-7,1c-3.26,1-6.84,1.1-9.66,3.38l-4.3,1.79a2,2,0,0,0-2.41,1.48,7.24,7.24,0,0,0-3.62,2.37,2.25,2.25,0,0,0-2.44,1.58l-1.63,1.19a2.78,2.78,0,0,0-2.33,1.84,33.2,33.2,0,0,0-7.86,7.83,2.57,2.57,0,0,0-1.8,2.36,11.1,11.1,0,0,0-3.22,4.6,2.14,2.14,0,0,0-1.33,2.5,10.92,10.92,0,0,0-2.71,5.45,2,2,0,0,0-1.3,2.51v0c-.25.81-.49,1.62-.73,2.43-1.36.87-1.5,2.15-1.2,3.58l-.54,2.9a1.64,1.64,0,0,0-.55,2.09l-.32,2.93c-.94,2.4-.54,4.93-.55,7.39,0,21.32.06,42.63-.08,64,0,4.89,2.25,11.4-1,14.25s-9.55.66-14.55.64Z" transform="translate(-19.1 -16.23)"/><path class="cls-7" d="M1185.39,75.05c4.8,16.45,1.61,33.29,2.39,49.94.37,7.79,0,15.61.11,23.42,0,2.34-.6,3.32-3.08,3.1-4.28-.38-8.63.49-12.9-.49V89.11a48.17,48.17,0,0,0-.48-4.92,1.6,1.6,0,0,0-.64-2.07c-.23-1-.46-1.93-.68-2.9a2.37,2.37,0,0,0-.69-2.76l-.86-2.28c-.34-2-.59-4.13-2.1-5.75-.38-1.18-.43-2.52-1.63-3.3a8,8,0,0,0-2.72-4.41c-2.86-5.57-7.16-9.88-12-13.73a2.48,2.48,0,0,0-2.23-1.9,13.85,13.85,0,0,0-6.47-4.32,3,3,0,0,0-2.56-1.59,12.65,12.65,0,0,0-7-2.87,1.83,1.83,0,0,0-2-.87c-4.41-2.09-9-3.56-14-3.18-1.66-1-3.54-.82-5.33-.83-11.47-.11-22.93-.21-34.39-.19-16.78,0-33.55.18-50.32.28-2.51-3.6-.21-7.67-1.1-11.42l3.17-3.1,92,.1a2.1,2.1,0,0,0,2.09.54l2.9.51a16.44,16.44,0,0,0,6.1,1.42c6.53,1.66,12.33,5,18.3,8A3,3,0,0,0,1152,29l4.57,3.37a17.63,17.63,0,0,0,6.36,5.77c4.58,4.81,9.46,9.35,13.11,15a2.91,2.91,0,0,0,1.5,2.62l2.55,4.39c.73,2.16,1,4.51,2.7,6.26.19.9.37,1.79.56,2.69a2.77,2.77,0,0,0,1.53,3.1Z" transform="translate(-19.1 -16.23)"/><path class="cls-8" d="M155.15,94.63V76.45c0-2.26.14-4.74,3-4.82,9.61-.24,19.26-1,28.84.39,12.86,1.89,16.27,16.83,7,25.5-3.16,2.94-2.39,4.71-.41,7.27,2.35,3,4.63,6.08,7,9.06,1.86,2.34,1,3.6-1.55,4.25-1.12.3-2.29.42-3.42.67-10.38,2.36-12,1.57-16.54-8.12-.43-.9-.78-1.84-1.23-2.73-1-1.92-2.34-3.35-4.72-2.73s-1.5,2.63-1.75,4.16a8.34,8.34,0,0,0,0,1c-.13,2.9,2,7.35-.43,8.37-4.48,1.85-9.8.81-14.74.46-1.78-.12-1-2.18-1-3.37C155.33,109.16,156.07,102.53,155.15,94.63ZM181,88.14c0-3.93-2.53-6.49-6.16-6-5.37.65-2,5.29-3.1,7.94s1,3.81,3.56,3.75C179.25,93.7,180.51,91,181,88.14Z" transform="translate(-19.1 -16.23)"/><path class="cls-9" d="M119.53,77.91c15.16-2.13,25.38,12.54,24,22.82a21.67,21.67,0,0,1-4,10c-9.33,13-32.67,13.5-42.66-2.44-6.58-10.5-.78-21.54,8.86-27.35C110.14,78.32,114.88,77.11,119.53,77.91Z" transform="translate(-19.1 -16.23)"/><path class="cls-8" d="M229.4,71.37c5.32,0,10.64.06,16,0,2.47,0,3,.63,2.59,3.21-1.52,8.64-1.39,8.64-10.24,8.31-2.49-.09-5-.06-7.48,0-2.23,0-4.26.08-4.37,3.31s2.07,2.92,4,3c3.31.2,6.64.35,10,.27,3-.08,3.64,1,2.91,3.91-1.9,7.67-1.76,7.52-10.13,7.86-2.45.11-6.85-2.17-7,2.8-.17,5.35,4.63,3.65,7.48,3.9a41.27,41.27,0,0,0,10.41-.56c3.34-.55,4,.66,3.88,3.69-.39,10.41.77,8.19-8.07,8.33s-17.63,0-26.44.06c-2.63,0-3.52-.25-3.21-3.57,1.23-13.09-.1-26.2-.74-39.29-.21-4.18,1.4-5.29,5.07-5.21C219.09,71.45,224.24,71.37,229.4,71.37Z" transform="translate(-19.1 -16.23)"/><path class="cls-8" d="M279.42,119.8c-7.49.16-14.7-.55-20.49-6.08-8.77-8.36-8.46-18.84-4.79-28.73,3-8,10-12.71,19.2-13.91a60.74,60.74,0,0,1,14.26.25c4.78.49,5.34,1.91,4.2,8.9-.6,3.69-2,4.3-5.76,3.33-12.27-3.17-19.19,3.71-16.13,15.6,1.32,5.12,4.73,7.83,10,7.92a42,42,0,0,1,4.49,0c2.41.29,6-1.52,7,.68,1.36,2.88-.18,6.5-.8,9.75-.29,1.55-1.81,1.8-3.19,1.88C284.74,119.56,282.08,119.67,279.42,119.8Z" transform="translate(-19.1 -16.23)"/><path class="cls-2" d="M21,172.4c5,0,11.32,2.07,14.54-.69s1-9.36,1-14.25c.14-21.32,0-42.63.08-63.95,0-2.46-.39-5,.55-7.39,1.37,1.18.85,2.77.85,4.2,0,25.92-.08,51.84.11,77.75,0,4.61-1.39,6.65-6,5.86C28.46,173.29,24.32,175.7,21,172.4Z" transform="translate(-19.1 -16.23)"/><path class="cls-2" d="M92.12,32.27a16.47,16.47,0,0,1,3.34-.74q44.85-.71,89.69-.05c-.61,2-2.34,1.52-3.73,1.52q-43.29.07-86.58.09C93.85,33.1,92.83,33.19,92.12,32.27Z" transform="translate(-19.1 -16.23)"/><path class="cls-2" d="M1025.83,31.52c16.77-.1,33.54-.24,50.32-.28q17.19,0,34.39.19c1.79,0,3.67-.18,5.33.83-1.2,1.36-2.78.8-4.21.8q-40.29,0-80.58-.09C1029.3,33,1027,34.09,1025.83,31.52Z" transform="translate(-19.1 -16.23)"/><path class="cls-2" d="M37.15,539.89a24,24,0,0,1-.5-3.38V459.83a18.92,18.92,0,0,1,.47-2.89c1.39,1.15.92,2.75.93,4.18v74.59C38,537.14,38.52,538.73,37.15,539.89Z" transform="translate(-19.1 -16.23)"/><path class="cls-2" d="M53.53,31.38C49.78,35.68,46,39.89,41.05,43,44.27,38.08,47.76,33.5,53.53,31.38Z" transform="translate(-19.1 -16.23)"/><path class="cls-2" d="M311.1,348.19c-.37.5-.67,1.37-1.12,1.46-1.76.34-2.88,2.43-4.9,1.83a1.19,1.19,0,0,1-.6-1.57.93.93,0,0,1,0-.1,5,5,0,0,1,4.66-3Z" transform="translate(-19.1 -16.23)"/><path class="cls-2" d="M75.47,36.66c2.82-2.28,6.4-2.36,9.66-3.38C82.7,36.66,79,36.29,75.47,36.66Z" transform="translate(-19.1 -16.23)"/><path class="cls-2" d="M1162.89,38.1a17.63,17.63,0,0,1-6.36-5.77C1160,32.73,1161.82,35,1162.89,38.1Z" transform="translate(-19.1 -16.23)"/><path class="cls-2" d="M316,341c.94-3.07,3.19-4.43,6.23-4.75A10.61,10.61,0,0,1,316,341Z" transform="translate(-19.1 -16.23)"/><path class="cls-2" d="M1027.88,17l-3.15,3.09a1.84,1.84,0,0,1-.4-2.57,1.93,1.93,0,0,1,.31-.33C1025.57,16.16,1026.73,15.77,1027.88,17Z" transform="translate(-19.1 -16.23)"/><path class="cls-2" d="M1131,19.58a16.44,16.44,0,0,1-6.1-1.42C1127.42,16.49,1129.25,17.84,1131,19.58Z" transform="translate(-19.1 -16.23)"/><path class="cls-2" d="M1182.75,66.33c-1.68-1.75-2-4.1-2.7-6.26C1182.74,61.39,1182.73,63.87,1182.75,66.33Z" transform="translate(-19.1 -16.23)"/><path class="cls-2" d="M1166.47,68.43c1.51,1.62,1.76,3.7,2.1,5.75C1166.26,72.85,1166.08,70.75,1166.47,68.43Z" transform="translate(-19.1 -16.23)"/><path class="cls-2" d="M31.06,55.1c-.06,1.9-1.5,3.16-2.35,4.69C28.08,57.52,28.57,55.81,31.06,55.1Z" transform="translate(-19.1 -16.23)"/><path class="cls-2" d="M1162.12,60.72a8,8,0,0,1,2.72,4.41C1162.44,64.58,1162.06,62.79,1162.12,60.72Z" transform="translate(-19.1 -16.23)"/><path class="cls-2" d="M40,553.91a4.25,4.25,0,0,1-1.44-4.11C40.08,550.82,41.48,551.87,40,553.91Z" transform="translate(-19.1 -16.23)"/><path class="cls-2" d="M42.91,561.21c-1.31-1.19-2.41-2.49-2.43-4.39C42.84,557.42,43.29,559.09,42.91,561.21Z" transform="translate(-19.1 -16.23)"/><path class="cls-2" d="M49.19,571.54c-1.49-.82-2.71-1.85-2.9-3.7C48.41,568.17,49.22,569.53,49.19,571.54Z" transform="translate(-19.1 -16.23)"/><path class="cls-2" d="M1184.84,72.12a2.77,2.77,0,0,1-1.53-3.1C1184.83,69.56,1186.33,70.1,1184.84,72.12Z" transform="translate(-19.1 -16.23)"/><path class="cls-2" d="M47.16,591.77a5.16,5.16,0,0,1,3.33,2.89C48.32,594.91,47.27,593.88,47.16,591.77Z" transform="translate(-19.1 -16.23)"/><path class="cls-2" d="M38.6,78.2c-.3-1.43-.16-2.71,1.2-3.58C40.18,76.07,40.39,77.47,38.6,78.2Z" transform="translate(-19.1 -16.23)"/><path class="cls-2" d="M58.77,27.74c-.78.68-1.49,1.47-2.64,1.45C56.32,27.45,57.27,27.09,58.77,27.74Z" transform="translate(-19.1 -16.23)"/><path class="cls-2" d="M1129.82,35.44a1.83,1.83,0,0,1,2,.87C1130.56,37.48,1130.07,36.73,1129.82,35.44Z" transform="translate(-19.1 -16.23)"/><path class="cls-2" d="M68.76,39.93a2,2,0,0,1,2.41-1.48A1.76,1.76,0,0,1,69.24,40,1.6,1.6,0,0,1,68.76,39.93Z" transform="translate(-19.1 -16.23)"/><path class="cls-2" d="M1138.87,39.18a3,3,0,0,1,2.56,1.59C1140,41.16,1139.06,40.78,1138.87,39.18Z" transform="translate(-19.1 -16.23)"/><path class="cls-2" d="M1170.8,82.12a1.6,1.6,0,0,1,.64,2.07C1170.09,83.86,1169.53,83.27,1170.8,82.12Z" transform="translate(-19.1 -16.23)"/><path class="cls-2" d="M62.7,43.88a2.25,2.25,0,0,1,2.44-1.58C64.92,43.75,64,44.15,62.7,43.88Z" transform="translate(-19.1 -16.23)"/><path class="cls-2" d="M58.74,46.91a2.78,2.78,0,0,1,2.33-1.84C61,46.6,60.2,47.16,58.74,46.91Z" transform="translate(-19.1 -16.23)"/><path class="cls-2" d="M1147.9,45.09a2.48,2.48,0,0,1,2.23,1.9C1148.72,47.14,1147.92,46.57,1147.9,45.09Z" transform="translate(-19.1 -16.23)"/><path class="cls-2" d="M1177.5,55.68a2.91,2.91,0,0,1-1.5-2.62C1177.58,53.32,1177.92,54.28,1177.5,55.68Z" transform="translate(-19.1 -16.23)"/><path class="cls-2" d="M49.08,57.1a2.57,2.57,0,0,1,1.8-2.36C51.14,56.18,50.59,57,49.08,57.1Z" transform="translate(-19.1 -16.23)"/><path class="cls-2" d="M28,61.07a3.58,3.58,0,0,1-1.4,2.66C26,62.32,26.29,61.32,28,61.07Z" transform="translate(-19.1 -16.23)"/><path class="cls-2" d="M44.53,64.2a2.14,2.14,0,0,1,1.33-2.5C46.2,63,45.89,63.85,44.53,64.2Z" transform="translate(-19.1 -16.23)"/><path class="cls-2" d="M24.68,69A1.59,1.59,0,0,1,24,71.09C22.75,69.92,23.39,69.36,24.68,69Z" transform="translate(-19.1 -16.23)"/><path class="cls-2" d="M40.53,72.19a2,2,0,0,1,1.26-2.53h0C42.19,70.9,41.89,71.82,40.53,72.19Z" transform="translate(-19.1 -16.23)"/><path class="cls-2" d="M1169.43,76.46a2.37,2.37,0,0,1,.69,2.76C1168.85,78.56,1168.77,77.6,1169.43,76.46Z" transform="translate(-19.1 -16.23)"/><path class="cls-2" d="M38.11,547.9a1.77,1.77,0,0,1-.52-2.09C38.89,546.22,39.41,546.83,38.11,547.9Z" transform="translate(-19.1 -16.23)"/><path class="cls-2" d="M37.51,83.19a1.64,1.64,0,0,1,.55-2.09C39.4,82.19,38.89,82.8,37.51,83.19Z" transform="translate(-19.1 -16.23)"/><path class="cls-2" d="M1186,550.94c-.26-1.24-.11-2.23,1.42-2.42C1188.08,550,1187.6,550.78,1186,550.94Z" transform="translate(-19.1 -16.23)"/><path class="cls-2" d="M1152,29a3,3,0,0,1-2.67-1.42C1150.68,27.08,1151.65,27.41,1152,29Z" transform="translate(-19.1 -16.23)"/><path class="cls-2" d="M88.08,17.11a2.08,2.08,0,0,1-2.08.53C86.39,16.31,87,15.87,88.08,17.11Z" transform="translate(-19.1 -16.23)"/><path class="cls-2" d="M23.79,556.21A2.45,2.45,0,0,1,24.7,559C23.17,558.47,23.09,557.47,23.79,556.21Z" transform="translate(-19.1 -16.23)"/><path class="cls-2" d="M1122,17.65a2.1,2.1,0,0,1-2.09-.54C1121,15.87,1121.59,16.3,1122,17.65Z" transform="translate(-19.1 -16.23)"/><path class="cls-2" d="M44.5,564.55c-.62-.8-1.36-1.55-1.26-2.69C44.87,562.19,45.12,563.17,44.5,564.55Z" transform="translate(-19.1 -16.23)"/><path class="cls-2" d="M26.72,565.21c.75.75,1.48,1.51,1.31,2.7C26.38,567.6,26.05,566.65,26.72,565.21Z" transform="translate(-19.1 -16.23)"/><path class="cls-2" d="M75.08,20.08a1.91,1.91,0,0,1-2,1C73.21,19.63,73.65,18.84,75.08,20.08Z" transform="translate(-19.1 -16.23)"/><path class="cls-2" d="M30.55,572.28a3,3,0,0,1,1.51,2.63C30.45,574.67,30.07,573.72,30.55,572.28Z" transform="translate(-19.1 -16.23)"/><path class="cls-2" d="M61.05,583a2.9,2.9,0,0,1-2.35-1.86C60.18,580.85,61,581.44,61.05,583Z" transform="translate(-19.1 -16.23)"/><path class="cls-2" d="M66.13,586.74a2.39,2.39,0,0,1-2.48-1.59C65.05,584.78,65.91,585.27,66.13,586.74Z" transform="translate(-19.1 -16.23)"/><path class="cls-2" d="M70.14,588.7a3,3,0,0,1-2.67-1.36C68.86,586.83,69.81,587.15,70.14,588.7Z" transform="translate(-19.1 -16.23)"/><path class="cls-2" d="M74.12,590.77a2.67,2.67,0,0,1-2.65-1.42C72.9,588.8,73.82,589.21,74.12,590.77Z" transform="translate(-19.1 -16.23)"/><path class="cls-2" d="M67.64,23.49A2.53,2.53,0,0,1,65,24.75C65.4,23.31,66.34,23,67.64,23.49Z" transform="translate(-19.1 -16.23)"/><path class="cls-2" d="M92.2,596.23a1.62,1.62,0,0,1-2.08-.51C91.15,594.49,91.75,595,92.2,596.23Z" transform="translate(-19.1 -16.23)"/><path class="cls-2" d="M53.13,596.82a3.34,3.34,0,0,1,2.48,1.74C54.11,599,53.24,598.42,53.13,596.82Z" transform="translate(-19.1 -16.23)"/><path class="cls-2" d="M62.05,602.06a2.43,2.43,0,0,1,2.61,1.44C63.26,604,62.36,603.56,62.05,602.06Z" transform="translate(-19.1 -16.23)"/><path class="cls-2" d="M77,608.25a1.59,1.59,0,0,1,2.08.62C78,610.19,77.37,609.6,77,608.25Z" transform="translate(-19.1 -16.23)"/><path class="cls-2" d="M82,609.5a1.66,1.66,0,0,1,2.11.38C83.14,611.13,82.5,610.67,82,609.5Z" transform="translate(-19.1 -16.23)"/><path class="cls-2" d="M37,456.08l-1.1-1C36.69,455,37.06,455.31,37,456.08Z" transform="translate(-19.1 -16.23)"/><path class="cls-10" d="M523.2,419.47a23.18,23.18,0,0,1,18.23-23c7.6-1.76,19.45,5.53,21.5,14.36,3.54,15.17,1.9,20.58-10.71,29.93-4.28,3.17-9.87,2.89-14.85.71C527.81,437.3,523.22,430,523.2,419.47Z" transform="translate(-19.1 -16.23)"/><path class="cls-11" d="M678.68,399.27c-1.17-26.77,6.87-50.59,16.07-74,13.49-34.31,32.68-65.39,55.67-94.14,15.45-19.31,33.62-36,51.7-52.73,26.17-24.23,55.83-43.53,86.66-61.17,34.66-19.83,71-35.73,109.76-45.65,23.57-6,47.45-10.25,71.9-9.56,15.37.43,30.47,2.44,44.32,10,18.15,9.89,23.08,26.45,20.89,44.8-3.6,30-18.72,54.7-37,77.82-16.66,21.11-35,40.69-56.57,56.8C1016.4,270.66,990,289,963.84,307.58a136.56,136.56,0,0,0-14.22,11.74c-1.59,1.49-4.87,2.69-2.64,5.95s4.25,6.36,9.19,5a77,77,0,0,0,16-6.81c30.24-16,61.3-29.95,95.29-36.06a73.42,73.42,0,0,1,23.39-.24c16.35,2.37,27.79,23.07,16.7,38.4-11.2,15.49-25.61,27-41.67,36.59-40.22,24.11-83.36,42.13-126.41,60.39-29.4,12.47-58.56,25.5-87.83,38.31-19.2,8.4-39.35,13-60.1,15.44-18.75,2.2-37.43,3.14-56.16-.08-20.42-3.51-36-13.95-46.43-31.91A77.54,77.54,0,0,1,678.68,399.27Z" transform="translate(-19.1 -16.23)"/><path class="cls-12" d="M73.74,421.43c.73-31.5,10.39-60.58,24.11-88.65,14.59-29.85,33.58-56.53,56.26-80.73a410.92,410.92,0,0,1,91.32-72.82,415,415,0,0,1,61.22-30.08c29.05-11.26,58.87-18.85,90.41-17.43,6.87.31,13.61,1.16,20,3.61,19.78,7.56,27.68,21.94,24.73,42.84-3.36,23.83-14.63,43.94-28.17,63.12-19.7,27.92-44.78,50.32-72,70.62-13.19,9.84-26,20.13-38.93,30.37A59,59,0,0,0,295,350c-2,2.25-2.91,5.08-1,7.8s4.74,3.44,8,2.46c6.63-2,12.14-6.17,18.14-9.38,14.5-7.75,28.88-15.74,44.24-21.71,1.7-.67,3.81-2.35,5.52-.54,1.34,1.42.4,3.5-.08,5.24A207.51,207.51,0,0,0,362.54,394c.1,4.37-1.32,7-5.24,9.15-26.81,14.43-54.18,27.71-81.67,40.79-20.85,9.92-41.3,20.72-62.23,30.48-19.33,9-40.08,12.8-61.23,14.86-12.73,1.24-25.28.88-37.59-2.5-18.39-5.05-29.3-18.07-36.31-35C74.22,442.1,73.29,431.9,73.74,421.43Z" transform="translate(-19.1 -16.23)"/><path class="cls-13" d="M829.43,566.11c-31.53,1.06-59.89-6.54-85.8-22.78-16.33-10.24-29.13-24.15-39.72-40.16-.53-.8-1.4-1.8-.65-2.7.89-1.06,2.16-.42,3.25,0,8.72,3.21,17.47,6.15,26.73,7.76,20.72,3.61,41.34,3.35,62,.3,36.59-5.37,70.46-18.95,104-33.83,20.87-9.26,42.23-17.07,65-20.56,16.55-2.54,29.14,3.05,35.33,16.82,5,11.16,1.91,21.53-4.38,31.16-9.21,14.12-21.94,24.64-36.56,32.54-25.21,13.62-52.44,21.47-80.56,26.66C861.65,564.32,845.24,566.64,829.43,566.11Z" transform="translate(-19.1 -16.23)"/><path class="cls-13" d="M210.47,566.16c-31.19.47-59.15-6.93-83.93-24.8a115.12,115.12,0,0,1-25.65-25.64c-.8-1.11-2.54-2.2-1.25-3.87s2.84-.48,4.13,0c14.86,5.8,30.46,6.88,46.1,6.65,21.24-.32,41.85-4.7,62.06-11.16,22.58-7.21,43.83-17.46,65-27.92,16.43-8.11,33.11-15.69,51-20,9.05-2.19,18.32-3.83,27.59-1.48,12.43,3.15,20.58,19.39,16.58,31.47-6.4,19.35-20.12,32.18-37,42.08-30.84,18.09-64.6,27.78-99.64,33.2C227,566,218.25,566.78,210.47,566.16Z" transform="translate(-19.1 -16.23)"/><path class="cls-10" d="M181,88.14c-.44,2.89-1.7,5.56-5.7,5.64-2.58.06-4.66-1.14-3.56-3.75s-2.27-7.29,3.1-7.94C178.42,81.65,181,84.21,181,88.14Z" transform="translate(-19.1 -16.23)"/></svg>