<svg id="图层_1" data-name="图层 1" xmlns="http://www.w3.org/2000/svg" viewBox="0 0 1170 600"><defs><style>.cls-1{fill:#fdfdfd;}.cls-2{fill:#d0d0d0;}.cls-3{fill:#d36aa9;}.cls-4{fill:#d371ac;}.cls-5{fill:#d370ac;}.cls-6{fill:#090909;}.cls-7{fill:#070707;}.cls-8{fill:#2c2c2c;}.cls-9{fill:#fe0505;}.cls-10{fill:#fcfafb;}.cls-11{fill:#fefdfe;}.cls-12{fill:#fefdfd;}.cls-13{fill:#fdfcfd;}</style></defs><title>EOE_录播站头像</title><path class="cls-1" d="M.1,440.94V68.1H2V158.4c3.35,3.3,7.49.89,11.21,1.53,4.58.79,6-1.25,6-5.86-.19-25.91-.09-51.83-.11-77.75,0-1.43.52-3-.85-4.2l.32-2.93c1.38-.39,1.89-1,.55-2.09l.54-2.9c1.79-.73,1.58-2.13,1.2-3.58l.73-2.43c1.36-.37,1.66-1.29,1.29-2.54a10.92,10.92,0,0,1,2.71-5.45c1.36-.35,1.67-1.25,1.33-2.5a11.16,11.16,0,0,1,3.22-4.6c1.51-.09,2.06-.92,1.8-2.36a33.2,33.2,0,0,1,7.86-7.83c1.46.25,2.28-.31,2.33-1.84l1.63-1.19c1.33.27,2.22-.13,2.44-1.58a7.2,7.2,0,0,1,3.62-2.37,1.77,1.77,0,0,0,2.41-1.48l4.3-1.79c3.49-.37,7.23,0,9.66-3.38a16.32,16.32,0,0,1,7-1c.71.92,1.73.83,2.72.82q43.29,0,86.58-.09c1.39,0,3.12.52,3.73-1.52,2.06-1.42,1.4-3.56,1.41-5.48.05-8.95,0-9-8.68-8.95l-89.8.06C68,1.87,67.39,2.31,67,3.64c-3.61.94-7.09,2.46-10.91,2.44-1.43-1.24-1.87-.45-2,1L48.64,9.49C47.34,9,46.4,9.31,46,10.75l-6.24,3c-1.5-.65-2.45-.29-2.64,1.45l-2.6,2.19C28.76,19.5,25.27,24.08,22.05,29c-3.33,4.05-7.68,7.26-10,12.15-2.49.71-3,2.42-2.35,4.69L9,47.07c-1.66.25-1.91,1.25-1.4,2.66L5.68,55c-1.29.34-1.93.9-.68,2.07l-1,7L.1,65.1C.1,44.46.15,23.81,0,3.16,0,.72.51-.38,3.08.11a10.26,10.26,0,0,0,2,0Q585,.13,1164.91,0c4.29,0,5.15,1,5.09,5.13-.27,19-.12,38-.12,57l-3.49-1.06-.55-2.93c1.49-2,0-2.56-1.53-3.1-.19-.9-.37-1.79-.56-2.69,0-2.46,0-4.94-2.7-6.26l-2.55-4.39c.42-1.4.08-2.36-1.5-2.62-3.65-5.61-8.53-10.15-13.11-15-1.07-3.08-2.85-5.37-6.36-5.77L1133,15c-.31-1.55-1.28-1.88-2.67-1.42-6-2.95-11.77-6.3-18.3-8-1.74-1.74-3.57-3.09-6.1-1.42l-2.9-.51c-.4-1.35-1-1.78-2.09-.54l-92-.1c-1.15-1.24-2.31-.85-3.24.19a1.84,1.84,0,0,0,.09,2.9c.89,3.75-1.41,7.82,1.1,11.42,1.16,2.57,3.47,1.44,5.25,1.45q40.29.13,80.58.09c1.43,0,3,.56,4.21-.8,5-.38,9.54,1.09,14,3.18.25,1.29.74,2,2,.87a12.65,12.65,0,0,1,7,2.87c.19,1.6,1.14,2,2.56,1.59a13.87,13.87,0,0,1,6.47,4.32c0,1.48.82,2.05,2.23,1.9,4.83,3.85,9.13,8.16,12,13.73-.06,2.07.32,3.86,2.72,4.41,1.2.78,1.25,2.12,1.63,3.3-.39,2.32-.21,4.42,2.1,5.75l.86,2.28c-.66,1.14-.58,2.1.69,2.76.22,1,.45,1.94.68,2.9-1.27,1.15-.71,1.74.64,2.07.17,1.64.47,3.28.48,4.92q0,31,0,61.91c0,.94.47,1.79,1.32,1.78,5.22-.06,10.51,1,15.65-.73V421l-1.23.14-6,0c-8.61,0-9.72,1.11-9.72,9.76,0,30.62-.1,61.25.07,91.87,0,7.17-2.51,13.63-4.26,20.32-2.9,11.07-11.16,18.16-19.14,25.48-10.72,9.83-23.7,13.91-37.78,14.12-25.63.4-51.28.15-76.92.16-9.84,0-9.92.31-10.25,10-.14,4.08,1.15,4.92,5,4.89,25.64-.16,51.28-.34,76.91,0,36.31.45,71-21.31,80.49-60.68,1.58-.16,2.06-1,1.42-2.42l0,0,1.42.43c0,20.66-.05,41.32.07,62,0,2.5-.57,3.49-3.07,3a8.33,8.33,0,0,0-1.5,0Q585,599.87,4.6,600c-3.75,0-4.64-.84-4.6-4.6.22-19.49.1-39,.1-58.47h3l1.7,5.31c-.7,1.26-.62,2.26.91,2.77.85,2,2,4,2,6.23-.67,1.44-.34,2.39,1.31,2.7l2.52,4.37c-.48,1.44-.1,2.39,1.51,2.63,4.14,6.42,9.92,11.37,15.1,16.86.11,2.11,1.16,3.14,3.33,2.89l2.64,2.16c.11,1.6,1,2.13,2.48,1.74l6.44,3.5c.31,1.5,1.21,1.91,2.61,1.44L58,594.25c.36,1.35.94,1.94,2.08.62l2.89.63c.52,1.17,1.16,1.63,2.11.38,6.65,1.86,13.47,1.69,20.27,1.68h71.88c9.67,0,9.39,0,9.8-9.51.19-4.59-1.3-5.41-5.56-5.38-25.79.21-51.59.14-77.38.07-3.63,0-7.31.48-10.9-.51-.45-1.19-1-1.74-2.08-.51a40,40,0,0,1-16-5c-.3-1.56-1.22-2-2.65-1.42l-1.33-.65c-.33-1.55-1.28-1.87-2.67-1.36l-1.34-.6c-.22-1.47-1.08-2-2.48-1.59L42.05,569c-.06-1.53-.87-2.12-2.35-1.86a51.3,51.3,0,0,1-9.51-9.57c0-2-.78-3.37-2.9-3.7a5.34,5.34,0,0,1-1.79-3.29c.62-1.38.37-2.36-1.26-2.69a.52.52,0,0,1-.33-.65c.38-2.12-.07-3.79-2.43-4.39L21,539.91c1.44-2,0-3.09-1.44-4.11l-.49-1.9c1.3-1.07.78-1.68-.52-2.09a13.33,13.33,0,0,1-.44-5.92c1.37-1.16.89-2.75.89-4.18q0-37.29,0-74.59c0-1.43.46-3-.93-4.18a1.08,1.08,0,0,1-.09-.86c0-.77-.33-1.11-1.1-1H5.11C3.48,438.87,1.77,441.4.1,440.94ZM297,327a10.67,10.67,0,0,0,6.23-4.74c9.35-9,20.31-16,30.33-24.24s20.68-15.54,30.13-24.36c10.22-9.54,19.13-20.29,28.09-31a210.92,210.92,0,0,0,23.77-35.53A122.16,122.16,0,0,0,428,173.7a86,86,0,0,0,1.83-23.65,38.08,38.08,0,0,0-14.54-27.44c-9.5-7.62-21.11-10.51-33.05-11.23a191.78,191.78,0,0,0-63,6.87,366,366,0,0,0-67.36,26.55c-13.78,7-27.28,14.32-40.66,22-18.69,10.76-34.42,25.29-50.71,39A386.55,386.55,0,0,0,117.62,248c-7.11,8.15-13,17.13-19.65,25.57-7.52,9.58-12.56,21-19.44,31.18a58.08,58.08,0,0,0-6.39,12.38C68,328.4,63,339.33,59,350.67s-6.08,22.63-8.45,34.09-.9,22.89-1.08,34.34c-.22,14.54,4,27.83,13.13,39.17,12.09,15.07,27.86,23.36,47.44,23.44,13,.05,25.87.34,38.79-1.75A277.29,277.29,0,0,0,193.18,469c11.24-3.78,21-10.66,31.63-15.77,22.76-10.94,45.27-22.39,68.08-33.2,17.15-8.13,34-16.88,50.82-25.56,5-2.55,7.26-6.58,7.21-12.1-.06-6.32-.45-12.68,0-19,.63-8.39,1.27-16.89,3.16-25,1.95-8.44,3.63-16.79,3.61-25.47,0-4-2-5.67-5.87-5.69a14.82,14.82,0,0,0-6.74,1.55c-9.66,4.72-19.91,8.17-29.17,13.76-3,1.79-7.79,1.57-9.48,3.63-3.94,4.82-9.84,5-14.35,8.06l-1.92-1.41C292.28,330.64,294,328.07,297,327Zm83,50.78c0,9.51,0,16.17,0,22.83a16.5,16.5,0,0,0,.9,5.87c3,8.14,1.79,17,4.78,25.28,2.35,6.46,2.9,13.58,5.28,20,5,13.54,10.53,26.88,18.6,39,6,9,11.86,18,19.52,25.62,11.85,11.74,25,21.89,40.52,28.44,6.42,2.7,12.64,6.28,19.33,7.79a240.49,240.49,0,0,0,25.81,4.77c15,1.72,29.76.93,43.92-3.1,24.82-7.06,46.23-20.36,65.12-38.21,13.18-12.44,12.29-28.8,8.63-44.42-1.61-6.86-5.27-13.45-7.82-20.25-5-13.25-5.81-27-7.34-40.73-1.46-13.18,2.08-26.08,2.76-39.14.33-6.54,2.69-12.56,3.7-18.93,1.44-9.06,4.54-17.88,7.19-26.73a267.91,267.91,0,0,1,16.26-40.66c5.42-11.1,12.46-21.18,18.78-31.72,2.9-4.85,5.41-10.23,4-16-2.58-10.46-7.84-19.49-17.22-25.3C639.41,204,626,196.14,610.74,191.67,600.89,188.78,591,186,581,184c-10.31-2-20.9-.88-31.38-1.07-17.83-.33-34.86,4-51.53,9.56-11.48,3.8-22.07,9.77-32.77,15.55-14.85,8-26.16,19.9-37.77,31.44A73.93,73.93,0,0,0,416.69,253a224.05,224.05,0,0,0-12.86,23.38c-3.83,8.4-7.78,16.69-10.88,25.42-4.14,11.67-7.7,23.69-9.43,35.75C381.48,351.75,377.57,366,380,377.76Zm563.05-72.27c-.53-1.95,1.1-2.75,2.19-3.45,11.4-7.18,21.37-16.38,32.81-23.44,12.88-8,24.74-17.31,37.06-26a321,321,0,0,0,33.14-27.05c19.35-18,36.69-37.47,51-59.69,9.27-14.34,16.75-29.36,21.29-45.84,3.12-11.34,3.21-23,2.18-34.46-1-11.06-6.18-20.4-15.2-27.52-13.36-10.55-28.82-15.43-45.37-15.53-17.2-.1-34.47-1.57-51.68,2.43-6.94,1.62-14.16,3-21.27,4.29-10.36,1.9-20.34,5.68-30.56,8.13C947.75,60,937.56,64.4,927.26,68.43,914.2,73.55,901.65,80,888.93,85.93a312.17,312.17,0,0,0-47.07,26.83C833,119,823.35,124.2,814.79,131.21c-10,8.21-21.32,15-30.55,24.33-17,17.24-36.61,31.91-51.46,51.35-6,7.87-13.06,14.88-18.87,23-9.58,13.32-18.9,26.89-26.51,41.35a391.26,391.26,0,0,0-28,67.62c-3.83,12.46-4.93,25.22-7.16,37.81-2.36,13.3,1.08,26.7,4.27,39.7,3.43,14,11.92,24.79,22.17,34.74,13.23,12.84,29.14,18.32,46.87,18.64,16.93.31,33.85.56,50.81-1.47,11.57-1.38,23.07-2.7,34.21-6,18.68-5.54,36.16-14.09,53.9-22,20.31-9.08,40.83-17.68,61.27-26.46,17.25-7.42,34.64-14.54,51.73-22.29,16.5-7.48,32.79-15.42,49-23.52a256.86,256.86,0,0,0,25.16-14.2c12.1-7.86,23.65-16.39,34-26.7,8.81-8.79,14.41-18.2,14-31-.39-12.16-10.28-25.61-22.3-27.73a102.79,102.79,0,0,0-36.77.26c-19.93,3.74-38.52,11.93-57.18,19.52-12.4,5-25,9.77-36.75,16.37C945.58,305.07,944.62,306.4,943.05,305.49ZM814.28,558c12.12-.1,24.15-.24,36.29-2,20-2.85,39.3-8.26,58.31-14.53a175.09,175.09,0,0,0,36.31-16.2c12.62-7.66,24.66-15.72,33.23-27.91,9-12.81,15.93-26,8.56-42.48-6.47-14.42-15.57-21.14-31.71-20.7-8.61.23-17.17-.22-25.58,2.77-9.93,3.54-20.16,6.2-30.2,9.45-12.34,4-23.92,9.78-35.63,15.25s-25,8-36.38,14.65a4,4,0,0,1-1.43.39c-10.79,1.6-20.42,7.1-31.46,8.45-11.45,1.4-22.61,5.08-34.36,5-10.57-.1-21.12,1-31.72,0-9.44-.86-18.84-2.25-27.64-5.61-8.51-3.25-16.51-7.82-24.78-11.72-1.77-.84-4-1.83-5.53,0-1.34,1.62.15,3.34.77,5.06,2.51,7,6.71,12.93,10.78,19,8.93,13.27,20.46,24,33,33.73,8.8,6.83,18.85,11.55,29,16.15,11.36,5.12,23.27,7.81,35.29,10C790.87,558.82,802.63,558.16,814.28,558ZM359.73,468.51c2-7.71-1.22-14.19-6-20s-10.16-10.8-18.44-11.56c-14.39-1.31-28.13,1.4-41.52,6.17-18.62,6.63-36.29,15.5-53.88,24.36-8.87,4.47-17.69,8.75-26.93,12.44a274,274,0,0,1-41.5,13.24c-8.06,1.82-16.16,3.79-24.35,4.65-7.91.83-16,.4-24,.4A106.66,106.66,0,0,1,72,485.46c-2.14-1.15-4.56-3.78-6.6-1.68-1.88,1.92-.3,5,.9,7.36.15.3.33.58.49.87,8.72,15,20.58,27.49,33.91,38.19a125,125,0,0,0,71.44,27.46c25.72,1.65,51.38.64,76.52-6.28a380.17,380.17,0,0,0,51.64-17.8c19.45-8.49,37.41-19.56,49.91-37.55C355.92,487.82,361.93,479.7,359.73,468.51ZM136.15,80.63c.92,7.9.18,14.53,0,21.17,0,1.19-.76,3.25,1,3.37,4.94.35,10.26,1.39,14.74-.46,2.46-1,.3-5.47.43-8.37a8.12,8.12,0,0,1,0-1c.25-1.53-.5-3.57,1.75-4.16s3.74.81,4.72,2.73c.45.89.8,1.83,1.23,2.73,4.55,9.69,6.16,10.48,16.54,8.12,1.13-.25,2.3-.37,3.42-.67,2.52-.65,3.41-1.91,1.55-4.25-2.38-3-4.66-6-7-9.06-2-2.56-2.75-4.33.41-7.27,9.29-8.67,5.88-23.61-7-25.5-9.58-1.41-19.23-.63-28.84-.39-2.91.08-3,2.56-3,4.82ZM100.53,63.91c-4.65-.8-9.39.41-13.8,3.06-9.64,5.81-15.44,16.85-8.86,27.35,10,15.94,33.33,15.39,42.66,2.44a21.64,21.64,0,0,0,4-10C125.91,76.45,115.69,61.78,100.53,63.91ZM210.4,57.37c-5.16,0-10.31.08-15.47,0-3.67-.08-5.28,1-5.07,5.21.64,13.09,2,26.2.74,39.29-.31,3.32.58,3.6,3.21,3.57,8.81-.08,17.63.07,26.44-.06s7.68,2.08,8.07-8.33c.12-3-.54-4.24-3.88-3.69A41.32,41.32,0,0,1,214,93.9c-2.85-.25-7.65,1.45-7.48-3.9.16-5,4.56-2.69,7-2.8,8.37-.34,8.23-.19,10.13-7.86.73-3,.14-4-2.91-3.91-3.32.08-6.65-.07-10-.27-1.89-.11-4.07.19-4-3s2.14-3.28,4.37-3.31c2.5,0,5-.06,7.48,0,8.85.33,8.72.33,10.24-8.31.45-2.58-.12-3.26-2.59-3.21C221,57.43,215.72,57.36,210.4,57.37Zm50,48.43c2.66-.13,5.32-.24,8-.39,1.38-.08,2.9-.33,3.19-1.88.62-3.25,2.16-6.87.8-9.75-1-2.2-4.58-.39-7-.68a44.8,44.8,0,0,0-4.49,0c-5.27-.09-8.68-2.8-10-7.92-3.06-11.89,3.86-18.77,16.13-15.6,3.72,1,5.16.36,5.76-3.33,1.14-7,.58-8.41-4.2-8.9a60.61,60.61,0,0,0-14.26-.25c-9.22,1.2-16.21,5.86-19.2,13.91-3.67,9.89-4,20.37,4.79,28.73C245.72,105.25,252.93,106,260.42,105.8Z" transform="translate(0)"/><path class="cls-1" d="M.1,533.9v-91H2c-.33,30.32-.45,60.65.09,91Z" transform="translate(0)"/><path class="cls-2" d="M1166.39,61.05l3.49,1.06v2c-.13.09-.38.23-.36.28a4,4,0,0,0,.36.71v73c-5.14,1.77-10.43.67-15.65.73-.85,0-1.35-.84-1.32-1.78,4.27,1,8.62.11,12.9.49,2.48.22,3.12-.76,3.08-3.1-.12-7.81.26-15.63-.11-23.42C1168,94.34,1171.19,77.5,1166.39,61.05Z" transform="translate(0)"/><path class="cls-2" d="M1169.88,534.9l-1.42-.43c.13-15.14.36-30.28.37-45.42,0-22.65-.11-45.31-.18-68l1.23-.14Z" transform="translate(0)"/><path class="cls-2" d="M2,68.09H.1v-3l3.87-1C4.17,65.85,3.22,67,2,68.09Z" transform="translate(0)"/><path class="cls-2" d="M2,442.93H.1v-2c1.67.46,3.38-2.07,5,.09Z" transform="translate(0)"/><path class="cls-2" d="M.1,533.9h2a2.33,2.33,0,0,1,1,3H.1Z" transform="translate(0)"/><path class="cls-1" d="M1169.88,65.1a4,4,0,0,1-.36-.71s.23-.19.36-.28Z" transform="translate(0)"/><path class="cls-3" d="M380,377.76c-2.43-11.76,1.48-26,3.52-40.17,1.73-12.06,5.29-24.08,9.43-35.75,3.1-8.73,7.05-17,10.88-25.42A224.05,224.05,0,0,1,416.69,253a73.93,73.93,0,0,1,10.85-13.54c11.61-11.54,22.92-23.42,37.77-31.44,10.7-5.78,21.29-11.75,32.77-15.55,16.67-5.52,33.7-9.89,51.53-9.56,10.48.19,21.07-.92,31.38,1.07,10,1.94,19.9,4.76,29.75,7.65,15.21,4.47,28.67,12.3,41.94,20.53,9.38,5.81,14.64,14.84,17.22,25.3,1.43,5.78-1.08,11.16-4,16-6.32,10.54-13.36,20.62-18.78,31.72a267.91,267.91,0,0,0-16.26,40.66c-2.65,8.85-5.75,17.67-7.19,26.73-1,6.37-3.37,12.39-3.7,18.93-.68,13.06-4.22,26-2.76,39.14,1.53,13.72,2.37,27.48,7.34,40.73,2.55,6.8,6.21,13.39,7.82,20.25,3.66,15.62,4.55,32-8.63,44.42-18.89,17.85-40.3,31.15-65.12,38.21-14.16,4-28.94,4.82-43.92,3.1a240.49,240.49,0,0,1-25.81-4.77c-6.69-1.51-12.91-5.09-19.33-7.79-15.56-6.55-28.67-16.7-40.52-28.44-7.66-7.59-13.56-16.65-19.52-25.62-8.07-12.14-13.6-25.48-18.6-39-2.38-6.44-2.93-13.56-5.28-20-3-8.24-1.78-17.14-4.78-25.28a16.5,16.5,0,0,1-.9-5.87C380,393.93,380,387.27,380,377.76Zm124.2,27.71c0,10.5,4.61,17.83,14.17,22,5,2.18,10.57,2.46,14.85-.71,12.61-9.35,14.25-14.76,10.71-29.93-2-8.83-13.9-16.12-21.5-14.36A23.18,23.18,0,0,0,504.2,405.47Z" transform="translate(0)"/><path class="cls-4" d="M943.05,305.49c1.57.91,2.53-.42,3.59-1,11.74-6.6,24.35-11.33,36.75-16.37,18.66-7.59,37.25-15.78,57.18-19.52a102.79,102.79,0,0,1,36.77-.26c12,2.12,21.91,15.57,22.3,27.73.4,12.79-5.2,22.2-14,31-10.33,10.31-21.88,18.84-34,26.7a256.86,256.86,0,0,1-25.16,14.2c-16.2,8.1-32.49,16-49,23.52-17.09,7.75-34.48,14.87-51.73,22.29-20.44,8.78-41,17.38-61.27,26.46-17.74,7.92-35.22,16.47-53.9,22-11.14,3.31-22.64,4.63-34.21,6-17,2-33.88,1.78-50.81,1.47-17.73-.32-33.64-5.8-46.87-18.64-10.25-9.95-18.74-20.78-22.17-34.74-3.19-13-6.63-26.4-4.27-39.7,2.23-12.59,3.33-25.35,7.16-37.81a391.26,391.26,0,0,1,28-67.62c7.61-14.46,16.93-28,26.51-41.35,5.81-8.08,12.86-15.09,18.87-23,14.85-19.44,34.44-34.11,51.46-51.35,9.23-9.36,20.5-16.12,30.55-24.33,8.56-7,18.16-12.2,27.07-18.45a312.17,312.17,0,0,1,47.07-26.83c12.72-6,25.27-12.38,38.33-17.5,10.3-4,20.49-8.46,31.43-11.09,10.22-2.45,20.2-6.23,30.56-8.13,7.11-1.31,14.33-2.67,21.27-4.29,17.21-4,34.48-2.53,51.68-2.43,16.55.1,32,5,45.37,15.53,9,7.12,14.21,16.46,15.2,27.52,1,11.47.94,23.12-2.18,34.46-4.54,16.48-12,31.5-21.29,45.84-14.36,22.22-31.7,41.71-51,59.69a321,321,0,0,1-33.14,27.05c-12.32,8.71-24.18,18.06-37.06,26-11.44,7.06-21.41,16.26-32.81,23.44C944.15,302.74,942.52,303.54,943.05,305.49ZM659.68,385.27A77.57,77.57,0,0,0,670,430.33c10.4,18,26,28.4,46.43,31.91,18.73,3.22,37.41,2.28,56.16.08,20.75-2.45,40.9-7,60.1-15.44,29.27-12.81,58.43-25.84,87.83-38.31,43-18.26,86.19-36.28,126.41-60.39,16.06-9.62,30.47-21.1,41.67-36.59,11.09-15.33-.35-36-16.7-38.4a73.44,73.44,0,0,0-23.39.24c-34,6.11-65,20-95.29,36.06a77.18,77.18,0,0,1-16,6.81c-4.94,1.33-7-1.84-9.19-5s1-4.46,2.64-5.95a136,136,0,0,1,14.22-11.74C971,275,997.4,256.66,1023.11,237.44c21.55-16.11,39.91-35.69,56.57-56.8,18.25-23.12,33.37-47.81,37-77.82,2.19-18.35-2.74-34.91-20.89-44.8-13.85-7.55-29-9.56-44.32-10-24.45-.69-48.33,3.53-71.9,9.56-38.77,9.92-75.1,25.82-109.76,45.65-30.83,17.64-60.49,36.94-86.66,61.17-18.08,16.74-36.25,33.42-51.7,52.73-23,28.75-42.18,59.83-55.67,94.14C666.55,334.68,658.51,358.5,659.68,385.27Z" transform="translate(0)"/><path class="cls-5" d="M292.1,334.19c4.51-3.08,10.41-3.24,14.35-8.06,1.69-2.06,6.52-1.84,9.48-3.63,9.26-5.59,19.51-9,29.17-13.76a14.82,14.82,0,0,1,6.74-1.55c3.89,0,5.86,1.66,5.87,5.69,0,8.68-1.66,17-3.61,25.47-1.89,8.16-2.53,16.66-3.16,25-.47,6.3-.08,12.66,0,19,.05,5.52-2.26,9.55-7.21,12.1C326.85,403.16,310,411.91,292.89,420c-22.81,10.81-45.32,22.26-68.08,33.2-10.63,5.11-20.39,12-31.63,15.77A277.29,277.29,0,0,1,148.81,480c-12.92,2.09-25.84,1.8-38.79,1.75-19.58-.08-35.35-8.37-47.44-23.44-9.11-11.34-13.35-24.63-13.13-39.17.18-11.45-1.27-23,1.08-34.34S55,361.88,59,350.67s9-22.27,13.16-33.54a58.08,58.08,0,0,1,6.39-12.38c6.88-10.18,11.92-21.6,19.44-31.18,6.63-8.44,12.54-17.42,19.65-25.57a386.55,386.55,0,0,1,42.88-42.21c16.29-13.67,32-28.2,50.71-39,13.38-7.71,26.88-15.07,40.66-22a366,366,0,0,1,67.36-26.55,191.78,191.78,0,0,1,63-6.87c11.94.72,23.55,3.61,33.05,11.23a38.08,38.08,0,0,1,14.54,27.44A86,86,0,0,1,428,173.7a122.16,122.16,0,0,1-12.41,33.41,210.92,210.92,0,0,1-23.77,35.53c-9,10.71-17.87,21.46-28.09,31-9.45,8.82-20.14,16.18-30.13,24.36s-21,15.21-30.33,24.23c-3,.32-5.29,1.68-6.23,4.75-3,1.09-4.72,3.66-6.81,5.8a5,5,0,0,0-4.66,3,1.19,1.19,0,0,0,.55,1.67c2,.6,3.14-1.49,4.9-1.83C291.43,335.56,291.73,334.69,292.1,334.19ZM54.74,407.43c-.45,10.47.48,20.67,4.51,30.41,7,17,17.92,30,36.31,35,12.31,3.38,24.86,3.74,37.59,2.5,21.15-2.06,41.9-5.85,61.23-14.86,20.93-9.76,41.38-20.56,62.23-30.48,27.49-13.08,54.86-26.36,81.67-40.79,3.92-2.11,5.34-4.78,5.24-9.15a207.59,207.59,0,0,1,7.28-60.17c.48-1.74,1.42-3.82.08-5.24-1.71-1.81-3.82-.13-5.52.54-15.36,6-29.74,14-44.24,21.71-6,3.21-11.51,7.39-18.14,9.38-3.25,1-6.07.26-8-2.46s-1-5.55,1-7.8a59.19,59.19,0,0,1,7.75-7.76c12.89-10.24,25.74-20.53,38.93-30.37,27.2-20.3,52.28-42.7,72-70.62,13.54-19.18,24.81-39.29,28.17-63.12,2.95-20.9-4.95-35.28-24.73-42.84-6.41-2.45-13.15-3.3-20-3.61-31.54-1.42-61.36,6.17-90.41,17.43a415.44,415.44,0,0,0-61.22,30.08,410.87,410.87,0,0,0-91.32,72.82c-22.68,24.2-41.67,50.88-56.26,80.73C65.13,346.85,55.47,375.93,54.74,407.43Z" transform="translate(0)"/><path class="cls-5" d="M814.28,558c-11.65.18-23.41.84-34.87-1.24-12-2.17-23.93-4.86-35.29-10-10.19-4.6-20.24-9.32-29-16.15-12.51-9.71-24-20.46-33-33.73-4.07-6.07-8.27-12-10.78-19-.62-1.72-2.11-3.44-.77-5.06,1.55-1.85,3.76-.86,5.53,0,8.27,3.9,16.27,8.47,24.78,11.72,8.8,3.36,18.2,4.75,27.64,5.61,10.6,1,21.15-.11,31.72,0,11.75.11,22.91-3.57,34.36-5,11-1.35,20.67-6.85,31.46-8.45a4,4,0,0,0,1.43-.39c11.42-6.66,24.53-9.11,36.38-14.65s23.29-11.26,35.63-15.25c10-3.25,20.27-5.91,30.2-9.45,8.41-3,17-2.54,25.58-2.77,16.14-.44,25.24,6.28,31.71,20.7,7.37,16.44.44,29.67-8.56,42.48-8.57,12.19-20.61,20.25-33.23,27.91a175.09,175.09,0,0,1-36.31,16.2c-19,6.27-38.31,11.68-58.31,14.53C838.43,557.74,826.4,557.88,814.28,558Zm-3.85-5.87c15.81.53,32.22-1.79,48.64-4.81,28.12-5.19,55.35-13,80.56-26.66,14.62-7.9,27.35-18.42,36.56-32.54,6.29-9.63,9.39-20,4.38-31.16-6.19-13.77-18.78-19.36-35.33-16.82-22.76,3.49-44.12,11.3-65,20.56-33.5,14.88-67.37,28.46-104,33.83-20.71,3.05-41.33,3.31-62-.3-9.26-1.61-18-4.55-26.73-7.76-1.09-.4-2.36-1-3.25,0-.75.9.12,1.9.65,2.7,10.59,16,23.39,29.92,39.72,40.16C750.54,545.57,778.9,553.17,810.43,552.11Z" transform="translate(0)"/><path class="cls-6" d="M1168.65,421.09c.07,22.65.2,45.31.18,68,0,15.14-.24,30.28-.37,45.42l0,0c-1.53.19-1.68,1.18-1.42,2.42-9.46,39.37-44.18,61.13-80.49,60.68-25.63-.32-51.27-.14-76.91,0-3.81,0-5.1-.81-5-4.89.33-9.67.41-10,10.25-10,25.64,0,51.29.24,76.92-.16,14.08-.21,27.06-4.29,37.78-14.12,8-7.32,16.24-14.41,19.14-25.48,1.75-6.69,4.3-13.15,4.26-20.32-.17-30.62-.07-61.25-.07-91.87,0-8.65,1.11-9.76,9.72-9.76Z" transform="translate(0)"/><path class="cls-5" d="M359.73,468.51c2.2,11.19-3.81,19.31-9.52,27.52-12.5,18-30.46,29.06-49.91,37.55a380.17,380.17,0,0,1-51.64,17.8c-25.14,6.92-50.8,7.93-76.52,6.28A125,125,0,0,1,100.7,530.2C87.37,519.5,75.51,507,66.79,492c-.16-.29-.34-.57-.49-.87-1.2-2.39-2.78-5.44-.9-7.36,2-2.1,4.46.53,6.6,1.68a106.66,106.66,0,0,0,51.12,12.72c8,0,16,.43,24-.4,8.19-.86,16.29-2.83,24.35-4.65a274,274,0,0,0,41.5-13.24c9.24-3.69,18.06-8,26.93-12.44,17.59-8.86,35.26-17.73,53.88-24.36,13.39-4.77,27.13-7.48,41.52-6.17,8.28.76,13.62,5.7,18.44,11.56S361.72,460.8,359.73,468.51ZM191.47,552.16c7.78.62,16.49-.17,25-1.48,35-5.42,68.8-15.11,99.64-33.2,16.9-9.9,30.62-22.73,37-42.08,4-12.08-4.15-28.32-16.58-31.47-9.27-2.35-18.54-.71-27.59,1.48-17.88,4.34-34.56,11.92-51,20-21.18,10.46-42.43,20.71-65,27.92-20.21,6.46-40.82,10.84-62.06,11.16-15.64.23-31.24-.85-46.1-6.65-1.29-.5-2.92-1.59-4.13,0s.45,2.76,1.25,3.87a115.33,115.33,0,0,0,25.65,25.64C132.32,545.23,160.28,552.63,191.47,552.16Z" transform="translate(0)"/><path class="cls-6" d="M3.09,536.9a2.33,2.33,0,0,0-1-3c-.54-30.32-.42-60.65-.09-91l3.1-1.9H16.92l1.1,1a1.08,1.08,0,0,0,.09.86,18.12,18.12,0,0,0-.47,2.89q0,38.34,0,76.68a24.39,24.39,0,0,0,.5,3.38,13.33,13.33,0,0,0,.44,5.92,1.77,1.77,0,0,0,.52,2.09l.49,1.9A4.27,4.27,0,0,0,21,539.91l.44,2.91c0,1.9,1.12,3.2,2.43,4.39a.52.52,0,0,0,.33.65c-.1,1.14.64,1.89,1.26,2.69a5.34,5.34,0,0,0,1.79,3.29c.19,1.85,1.41,2.88,2.9,3.7a51.3,51.3,0,0,0,9.51,9.57A2.9,2.9,0,0,0,42.05,569l2.6,2.18a2.39,2.39,0,0,0,2.48,1.59l1.34.6a3,3,0,0,0,2.67,1.36l1.33.65c.67.87,1.4,1.63,2.65,1.42a40,40,0,0,0,16,5,1.62,1.62,0,0,0,2.08.51c3.59,1,7.27.5,10.9.51,25.79.07,51.59.14,77.38-.07,4.26,0,5.75.79,5.56,5.38-.41,9.5-.13,9.51-9.8,9.51H85.36c-6.8,0-13.62.18-20.27-1.68A1.66,1.66,0,0,0,63,595.5l-2.89-.63a1.59,1.59,0,0,0-2.08-.62L45.66,589.5a2.44,2.44,0,0,0-2.61-1.44l-6.44-3.5a3.36,3.36,0,0,0-2.48-1.74l-2.64-2.16a5.16,5.16,0,0,0-3.33-2.89c-5.18-5.49-11-10.44-15.1-16.86a3,3,0,0,0-1.51-2.63L9,553.91c.17-1.19-.56-1.95-1.31-2.7-.07-2.27-1.17-4.21-2-6.23a2.46,2.46,0,0,0-.91-2.77Z" transform="translate(0)"/><path class="cls-6" d="M2,68.09c1.25-1,2.2-2.24,2-4l1-7A1.58,1.58,0,0,0,5.68,55c.63-1.76,1.25-3.53,1.87-5.29A3.58,3.58,0,0,0,9,47.07c.26-.42.51-.85.76-1.28C10.56,44.26,12,43,12.06,41.1c2.31-4.89,6.66-8.1,10-12.15,4.9-3.06,8.73-7.27,12.48-11.57l2.6-2.19c1.15,0,1.86-.77,2.64-1.45l6.24-3a2.54,2.54,0,0,0,2.63-1.26l5.43-2.44a1.91,1.91,0,0,0,2-1c3.82,0,7.3-1.5,10.91-2.44a2.07,2.07,0,0,0,2.09-.53l89.8-.06c8.71,0,8.73,0,8.68,9,0,1.92.65,4.06-1.41,5.48q-44.85-.6-89.69.05a16.54,16.54,0,0,0-3.34.74,16.32,16.32,0,0,0-7,1c-3.26,1-6.84,1.1-9.66,3.38l-4.3,1.79a2,2,0,0,0-2.41,1.48,7.2,7.2,0,0,0-3.62,2.37,2.25,2.25,0,0,0-2.44,1.58l-1.63,1.19a2.79,2.79,0,0,0-2.33,1.84,33.2,33.2,0,0,0-7.86,7.83,2.57,2.57,0,0,0-1.8,2.36,11.16,11.16,0,0,0-3.22,4.6,2.13,2.13,0,0,0-1.33,2.5,10.92,10.92,0,0,0-2.71,5.45,2,2,0,0,0-1.29,2.54c-.25.81-.49,1.62-.73,2.43-1.36.87-1.5,2.15-1.2,3.58l-.54,2.9a1.64,1.64,0,0,0-.55,2.09l-.32,2.93c-.94,2.4-.54,4.93-.55,7.39,0,21.32.06,42.63-.08,64,0,4.89,2.25,11.4-1,14.25S7,158.42,2,158.4Z" transform="translate(0)"/><path class="cls-7" d="M1166.39,61.05c4.8,16.45,1.61,33.29,2.39,49.94.37,7.79,0,15.61.11,23.42,0,2.34-.6,3.32-3.08,3.1-4.28-.38-8.63.49-12.9-.49q0-31,0-61.91c0-1.64-.31-3.28-.48-4.92a1.6,1.6,0,0,0-.64-2.07c-.23-1-.46-1.93-.68-2.9a2.38,2.38,0,0,0-.69-2.76l-.86-2.28c-.34-2-.59-4.13-2.1-5.75-.38-1.18-.43-2.52-1.63-3.3a8,8,0,0,0-2.72-4.41c-2.86-5.57-7.16-9.88-12-13.73a2.47,2.47,0,0,0-2.23-1.9,13.87,13.87,0,0,0-6.47-4.32,3,3,0,0,0-2.56-1.59,12.65,12.65,0,0,0-7-2.87,1.83,1.83,0,0,0-2-.87c-4.41-2.09-9-3.56-14-3.18-1.66-1-3.54-.82-5.33-.83-11.47-.11-22.93-.21-34.39-.19-16.78,0-33.55.18-50.32.28-2.51-3.6-.21-7.67-1.1-11.42L1008.88,3l92,.1a2.1,2.1,0,0,0,2.09.54l2.9.51a16.48,16.48,0,0,0,6.1,1.42c6.53,1.66,12.33,5,18.3,8A3,3,0,0,0,1133,15l4.57,3.37a17.71,17.71,0,0,0,6.36,5.77c4.58,4.81,9.46,9.35,13.11,15a2.92,2.92,0,0,0,1.5,2.62l2.55,4.39c.73,2.16,1,4.51,2.7,6.26.19.9.37,1.79.56,2.69a2.76,2.76,0,0,0,1.53,3.1Z" transform="translate(0)"/><path class="cls-8" d="M136.15,80.63V62.45c0-2.26.14-4.74,3-4.82,9.61-.24,19.26-1,28.84.39,12.86,1.89,16.27,16.83,7,25.5-3.16,2.94-2.39,4.71-.41,7.27,2.35,3,4.63,6.08,7,9.06,1.86,2.34,1,3.6-1.55,4.25-1.12.3-2.29.42-3.42.67-10.38,2.36-12,1.57-16.54-8.12-.43-.9-.78-1.84-1.23-2.73-1-1.92-2.34-3.35-4.72-2.73s-1.5,2.63-1.75,4.16a8.12,8.12,0,0,0,0,1c-.13,2.9,2,7.35-.43,8.37-4.48,1.85-9.8.81-14.74.46-1.78-.12-1.05-2.18-1-3.37C136.33,95.16,137.07,88.53,136.15,80.63ZM162,74.14c0-3.93-2.53-6.49-6.16-6-5.37.65-2,5.29-3.1,7.94s1,3.81,3.56,3.75C160.25,79.7,161.51,77,162,74.14Z" transform="translate(0)"/><path class="cls-9" d="M100.53,63.91c15.16-2.13,25.38,12.54,24,22.82a21.64,21.64,0,0,1-4,10c-9.33,12.95-32.67,13.5-42.66-2.44-6.58-10.5-.78-21.54,8.86-27.35C91.14,64.32,95.88,63.11,100.53,63.91Z" transform="translate(0)"/><path class="cls-8" d="M210.4,57.37c5.32,0,10.64.06,16,0,2.47,0,3,.63,2.59,3.21-1.52,8.64-1.39,8.64-10.24,8.31-2.49-.09-5-.06-7.48,0-2.23,0-4.26.08-4.37,3.31s2.07,2.92,4,3c3.31.2,6.64.35,10,.27,3.05-.08,3.64,1,2.91,3.91-1.9,7.67-1.76,7.52-10.13,7.86-2.45.11-6.85-2.17-7,2.8-.17,5.35,4.63,3.65,7.48,3.9a41.32,41.32,0,0,0,10.41-.56c3.34-.55,4,.66,3.88,3.69-.39,10.41.77,8.19-8.07,8.33s-17.63,0-26.44.06c-2.63,0-3.52-.25-3.21-3.57,1.23-13.09-.1-26.2-.74-39.29-.21-4.18,1.4-5.29,5.07-5.21C200.09,57.45,205.24,57.37,210.4,57.37Z" transform="translate(0)"/><path class="cls-8" d="M260.42,105.8c-7.49.16-14.7-.55-20.49-6.08-8.77-8.36-8.46-18.84-4.79-28.73,3-8,10-12.71,19.2-13.91a60.61,60.61,0,0,1,14.26.25c4.78.49,5.34,1.91,4.2,8.9-.6,3.69-2,4.3-5.76,3.33-12.27-3.17-19.19,3.71-16.13,15.6,1.32,5.12,4.73,7.83,10,7.92a44.8,44.8,0,0,1,4.49,0c2.41.29,6-1.52,7,.68,1.36,2.88-.18,6.5-.8,9.75-.29,1.55-1.81,1.8-3.19,1.88C265.74,105.56,263.08,105.67,260.42,105.8Z" transform="translate(0)"/><path class="cls-2" d="M2,158.4c5,0,11.32,2.07,14.54-.69s1-9.36,1-14.25c.14-21.32,0-42.63.08-63.95,0-2.46-.39-5,.55-7.39,1.37,1.18.85,2.77.85,4.2,0,25.92-.08,51.84.11,77.75,0,4.61-1.39,6.65-6,5.86C9.46,159.29,5.32,161.7,2,158.4Z" transform="translate(0)"/><path class="cls-2" d="M73.12,18.27a16.54,16.54,0,0,1,3.34-.74q44.85-.71,89.69-.05c-.61,2-2.34,1.52-3.73,1.52q-43.29.08-86.58.09C74.85,19.1,73.83,19.19,73.12,18.27Z" transform="translate(0)"/><path class="cls-2" d="M1006.83,17.52c16.77-.1,33.54-.24,50.32-.28,11.46,0,22.92.08,34.39.19,1.79,0,3.67-.18,5.33.83-1.2,1.36-2.78.8-4.21.8q-40.29,0-80.58-.09C1010.3,19,1008,20.09,1006.83,17.52Z" transform="translate(0)"/><path class="cls-2" d="M18.15,525.89a24.39,24.39,0,0,1-.5-3.38q0-38.34,0-76.68a18.12,18.12,0,0,1,.47-2.89c1.39,1.15.92,2.75.93,4.18q0,37.29,0,74.59C19,523.14,19.52,524.73,18.15,525.89Z" transform="translate(0)"/><path class="cls-2" d="M34.53,17.38C30.78,21.68,27,25.89,22.05,29,25.27,24.08,28.76,19.5,34.53,17.38Z" transform="translate(0)"/><path class="cls-2" d="M292.1,334.19c-.37.5-.67,1.37-1.12,1.46-1.76.34-2.88,2.43-4.9,1.83a1.19,1.19,0,0,1-.55-1.67,5,5,0,0,1,4.66-3Z" transform="translate(0)"/><path class="cls-2" d="M56.47,22.66c2.82-2.28,6.4-2.36,9.66-3.38C63.7,22.66,60,22.29,56.47,22.66Z" transform="translate(0)"/><path class="cls-2" d="M1143.89,24.1a17.71,17.71,0,0,1-6.36-5.77C1141,18.73,1142.82,21,1143.89,24.1Z" transform="translate(0)"/><path class="cls-2" d="M297,327c.94-3.07,3.19-4.43,6.23-4.75A10.64,10.64,0,0,1,297,327Z" transform="translate(0)"/><path class="cls-2" d="M1008.88,3l-3.15,3.09a1.84,1.84,0,0,1-.09-2.9C1006.57,2.16,1007.73,1.77,1008.88,3Z" transform="translate(0)"/><path class="cls-2" d="M1112,5.58a16.48,16.48,0,0,1-6.1-1.42C1108.42,2.49,1110.25,3.84,1112,5.58Z" transform="translate(0)"/><path class="cls-2" d="M1163.75,52.33c-1.68-1.75-2-4.1-2.7-6.26C1163.74,47.39,1163.73,49.87,1163.75,52.33Z" transform="translate(0)"/><path class="cls-2" d="M1147.47,54.43c1.51,1.62,1.76,3.7,2.1,5.75C1147.26,58.85,1147.08,56.75,1147.47,54.43Z" transform="translate(0)"/><path class="cls-2" d="M12.06,41.1C12,43,10.56,44.26,9.71,45.79,9.08,43.52,9.57,41.81,12.06,41.1Z" transform="translate(0)"/><path class="cls-2" d="M1143.12,46.72a8,8,0,0,1,2.72,4.41C1143.44,50.58,1143.06,48.79,1143.12,46.72Z" transform="translate(0)"/><path class="cls-2" d="M21,539.91a4.27,4.27,0,0,1-1.44-4.11C21.08,536.82,22.48,537.87,21,539.91Z" transform="translate(0)"/><path class="cls-2" d="M23.91,547.21c-1.31-1.19-2.41-2.49-2.43-4.39C23.84,543.42,24.29,545.09,23.91,547.21Z" transform="translate(0)"/><path class="cls-2" d="M30.19,557.54c-1.49-.82-2.71-1.85-2.9-3.7C29.41,554.17,30.22,555.53,30.19,557.54Z" transform="translate(0)"/><path class="cls-2" d="M1165.84,58.12a2.76,2.76,0,0,1-1.53-3.1C1165.83,55.56,1167.33,56.1,1165.84,58.12Z" transform="translate(0)"/><path class="cls-2" d="M28.16,577.77a5.16,5.16,0,0,1,3.33,2.89C29.32,580.91,28.27,579.88,28.16,577.77Z" transform="translate(0)"/><path class="cls-2" d="M19.6,64.2c-.3-1.43-.16-2.71,1.2-3.58C21.18,62.07,21.39,63.47,19.6,64.2Z" transform="translate(0)"/><path class="cls-2" d="M39.77,13.74c-.78.68-1.49,1.47-2.64,1.45C37.32,13.45,38.27,13.09,39.77,13.74Z" transform="translate(0)"/><path class="cls-2" d="M1110.82,21.44a1.83,1.83,0,0,1,2,.87C1111.56,23.48,1111.07,22.73,1110.82,21.44Z" transform="translate(0)"/><path class="cls-2" d="M49.76,25.93a2,2,0,0,1,2.41-1.48A1.77,1.77,0,0,1,49.76,25.93Z" transform="translate(0)"/><path class="cls-2" d="M1119.87,25.18a3,3,0,0,1,2.56,1.59C1121,27.16,1120.06,26.78,1119.87,25.18Z" transform="translate(0)"/><path class="cls-2" d="M1151.8,68.12a1.6,1.6,0,0,1,.64,2.07C1151.09,69.86,1150.53,69.27,1151.8,68.12Z" transform="translate(0)"/><path class="cls-2" d="M43.7,29.88a2.25,2.25,0,0,1,2.44-1.58C45.92,29.75,45,30.15,43.7,29.88Z" transform="translate(0)"/><path class="cls-2" d="M39.74,32.91a2.79,2.79,0,0,1,2.33-1.84C42,32.6,41.2,33.16,39.74,32.91Z" transform="translate(0)"/><path class="cls-2" d="M1128.9,31.09a2.47,2.47,0,0,1,2.23,1.9C1129.72,33.14,1128.92,32.57,1128.9,31.09Z" transform="translate(0)"/><path class="cls-2" d="M1158.5,41.68a2.92,2.92,0,0,1-1.5-2.62C1158.58,39.32,1158.92,40.28,1158.5,41.68Z" transform="translate(0)"/><path class="cls-2" d="M30.08,43.1a2.57,2.57,0,0,1,1.8-2.36C32.14,42.18,31.59,43,30.08,43.1Z" transform="translate(0)"/><path class="cls-2" d="M9,47.07a3.58,3.58,0,0,1-1.4,2.66C7,48.32,7.29,47.32,9,47.07Z" transform="translate(0)"/><path class="cls-2" d="M25.53,50.2a2.13,2.13,0,0,1,1.33-2.5C27.2,49,26.89,49.85,25.53,50.2Z" transform="translate(0)"/><path class="cls-2" d="M5.68,55A1.58,1.58,0,0,1,5,57.09C3.75,55.92,4.39,55.36,5.68,55Z" transform="translate(0)"/><path class="cls-2" d="M21.53,58.19a2,2,0,0,1,1.29-2.54C23.19,56.9,22.89,57.82,21.53,58.19Z" transform="translate(0)"/><path class="cls-2" d="M1150.43,62.46a2.38,2.38,0,0,1,.69,2.76C1149.85,64.56,1149.77,63.6,1150.43,62.46Z" transform="translate(0)"/><path class="cls-2" d="M19.11,533.9a1.77,1.77,0,0,1-.52-2.09C19.89,532.22,20.41,532.83,19.11,533.9Z" transform="translate(0)"/><path class="cls-2" d="M18.51,69.19a1.64,1.64,0,0,1,.55-2.09C20.4,68.19,19.89,68.8,18.51,69.19Z" transform="translate(0)"/><path class="cls-2" d="M1167,536.94c-.26-1.24-.11-2.23,1.42-2.42C1169.08,536,1168.6,536.78,1167,536.94Z" transform="translate(0)"/><path class="cls-2" d="M1133,15a3,3,0,0,1-2.67-1.42C1131.68,13.08,1132.65,13.41,1133,15Z" transform="translate(0)"/><path class="cls-2" d="M69.08,3.11A2.07,2.07,0,0,1,67,3.64C67.39,2.31,68,1.87,69.08,3.11Z" transform="translate(0)"/><path class="cls-2" d="M4.79,542.21A2.46,2.46,0,0,1,5.7,545C4.17,544.47,4.09,543.47,4.79,542.21Z" transform="translate(0)"/><path class="cls-2" d="M1103,3.65a2.1,2.1,0,0,1-2.09-.54C1102,1.87,1102.59,2.3,1103,3.65Z" transform="translate(0)"/><path class="cls-2" d="M25.5,550.55c-.62-.8-1.36-1.55-1.26-2.69C25.87,548.19,26.12,549.17,25.5,550.55Z" transform="translate(0)"/><path class="cls-2" d="M7.72,551.21c.75.75,1.48,1.51,1.31,2.7C7.38,553.6,7.05,552.65,7.72,551.21Z" transform="translate(0)"/><path class="cls-2" d="M56.08,6.08a1.91,1.91,0,0,1-2,1C54.21,5.63,54.65,4.84,56.08,6.08Z" transform="translate(0)"/><path class="cls-2" d="M11.55,558.28a3,3,0,0,1,1.51,2.63C11.45,560.67,11.07,559.72,11.55,558.28Z" transform="translate(0)"/><path class="cls-2" d="M42.05,569a2.9,2.9,0,0,1-2.35-1.86C41.18,566.85,42,567.44,42.05,569Z" transform="translate(0)"/><path class="cls-2" d="M47.13,572.74a2.39,2.39,0,0,1-2.48-1.59C46.05,570.78,46.91,571.27,47.13,572.74Z" transform="translate(0)"/><path class="cls-2" d="M51.14,574.7a3,3,0,0,1-2.67-1.36C49.86,572.83,50.81,573.15,51.14,574.7Z" transform="translate(0)"/><path class="cls-2" d="M55.12,576.77c-1.25.21-2-.55-2.65-1.42C53.9,574.8,54.82,575.21,55.12,576.77Z" transform="translate(0)"/><path class="cls-2" d="M48.64,9.49A2.54,2.54,0,0,1,46,10.75C46.4,9.31,47.34,9,48.64,9.49Z" transform="translate(0)"/><path class="cls-2" d="M73.2,582.23a1.62,1.62,0,0,1-2.08-.51C72.15,580.49,72.75,581,73.2,582.23Z" transform="translate(0)"/><path class="cls-2" d="M34.13,582.82a3.36,3.36,0,0,1,2.48,1.74C35.11,585,34.24,584.42,34.13,582.82Z" transform="translate(0)"/><path class="cls-2" d="M43.05,588.06a2.44,2.44,0,0,1,2.61,1.44C44.26,590,43.36,589.56,43.05,588.06Z" transform="translate(0)"/><path class="cls-2" d="M58,594.25a1.59,1.59,0,0,1,2.08.62C59,596.19,58.37,595.6,58,594.25Z" transform="translate(0)"/><path class="cls-2" d="M63,595.5a1.66,1.66,0,0,1,2.11.38C64.14,597.13,63.5,596.67,63,595.5Z" transform="translate(0)"/><path class="cls-2" d="M18,442.08l-1.1-1C17.69,441,18.06,441.31,18,442.08Z" transform="translate(0)"/><path class="cls-10" d="M504.2,405.47a23.18,23.18,0,0,1,18.23-23c7.6-1.76,19.45,5.53,21.5,14.36,3.54,15.17,1.9,20.58-10.71,29.93-4.28,3.17-9.87,2.89-14.85.71C508.81,423.3,504.22,416,504.2,405.47Z" transform="translate(0)"/><path class="cls-11" d="M659.68,385.27c-1.17-26.77,6.87-50.59,16.07-74,13.49-34.31,32.68-65.39,55.67-94.14,15.45-19.31,33.62-36,51.7-52.73,26.17-24.23,55.83-43.53,86.66-61.17,34.66-19.83,71-35.73,109.76-45.65,23.57-6,47.45-10.25,71.9-9.56,15.37.43,30.47,2.44,44.32,10,18.15,9.89,23.08,26.45,20.89,44.8-3.6,30-18.72,54.7-37,77.82-16.66,21.11-35,40.69-56.57,56.8C997.4,256.66,971,275,944.84,293.58a136,136,0,0,0-14.22,11.74c-1.59,1.49-4.87,2.69-2.64,5.95s4.25,6.36,9.19,5a77.18,77.18,0,0,0,16-6.81c30.24-16,61.3-29.95,95.29-36.06a73.44,73.44,0,0,1,23.39-.24c16.35,2.37,27.79,23.07,16.7,38.4-11.2,15.49-25.61,27-41.67,36.59-40.22,24.11-83.36,42.13-126.41,60.39-29.4,12.47-58.56,25.5-87.83,38.31-19.2,8.4-39.35,13-60.1,15.44-18.75,2.2-37.43,3.14-56.16-.08-20.42-3.51-36-13.95-46.43-31.91A77.57,77.57,0,0,1,659.68,385.27Z" transform="translate(0)"/><path class="cls-12" d="M54.74,407.43c.73-31.5,10.39-60.58,24.11-88.65,14.59-29.85,33.58-56.53,56.26-80.73a410.87,410.87,0,0,1,91.32-72.82,415.44,415.44,0,0,1,61.22-30.08c29.05-11.26,58.87-18.85,90.41-17.43,6.87.31,13.61,1.16,20,3.61,19.78,7.56,27.68,21.94,24.73,42.84-3.36,23.83-14.63,43.94-28.17,63.12-19.7,27.92-44.78,50.32-72,70.62-13.19,9.84-26,20.13-38.93,30.37A59.19,59.19,0,0,0,276,336c-2,2.25-2.91,5.08-1,7.8s4.74,3.44,8,2.46c6.63-2,12.14-6.17,18.14-9.38,14.5-7.75,28.88-15.74,44.24-21.71,1.7-.67,3.81-2.35,5.52-.54,1.34,1.42.4,3.5-.08,5.24a207.59,207.59,0,0,0-7.28,60.17c.1,4.37-1.32,7-5.24,9.15-26.81,14.43-54.18,27.71-81.67,40.79-20.85,9.92-41.3,20.72-62.23,30.48-19.33,9-40.08,12.8-61.23,14.86-12.73,1.24-25.28.88-37.59-2.5-18.39-5.05-29.3-18.07-36.31-35C55.22,428.1,54.29,417.9,54.74,407.43Z" transform="translate(0)"/><path class="cls-13" d="M810.43,552.11c-31.53,1.06-59.89-6.54-85.8-22.78-16.33-10.24-29.13-24.15-39.72-40.16-.53-.8-1.4-1.8-.65-2.7.89-1.06,2.16-.42,3.25,0,8.72,3.21,17.47,6.15,26.73,7.76,20.72,3.61,41.34,3.35,62,.3,36.59-5.37,70.46-18.95,104-33.83,20.87-9.26,42.23-17.07,65-20.56,16.55-2.54,29.14,3.05,35.33,16.82,5,11.16,1.91,21.53-4.38,31.16-9.21,14.12-21.94,24.64-36.56,32.54-25.21,13.62-52.44,21.47-80.56,26.66C842.65,550.32,826.24,552.64,810.43,552.11Z" transform="translate(0)"/><path class="cls-13" d="M191.47,552.16c-31.19.47-59.15-6.93-83.93-24.8a115.33,115.33,0,0,1-25.65-25.64c-.8-1.11-2.54-2.2-1.25-3.87s2.84-.48,4.13,0c14.86,5.8,30.46,6.88,46.1,6.65,21.24-.32,41.85-4.7,62.06-11.16,22.58-7.21,43.83-17.46,65-27.92,16.43-8.11,33.11-15.69,51-20,9.05-2.19,18.32-3.83,27.59-1.48,12.43,3.15,20.58,19.39,16.58,31.47-6.4,19.35-20.12,32.18-37,42.08-30.84,18.09-64.6,27.78-99.64,33.2C208,552,199.25,552.78,191.47,552.16Z" transform="translate(0)"/><path class="cls-10" d="M162,74.14c-.44,2.89-1.7,5.56-5.7,5.64-2.58.06-4.66-1.14-3.56-3.75s-2.27-7.29,3.1-7.94C159.42,67.65,162,70.21,162,74.14Z" transform="translate(0)"/></svg>