<svg xmlns="http://www.w3.org/2000/svg" viewBox="0 0 1073.9 517.2"><defs><style>.a{fill:#d36aa9;}.b{fill:#d371ac;}.c{fill:#d370ac;}.d{fill:#fcfafb;}.e{fill:#fefdfe;}.f{fill:#fefdfd;}.g{fill:#fdfcfd;}.h{font-size:72px;fill:#da2017;font-family:AdobeSongStd-Light-GBpc-EUC-H, Adobe Song Std;}.i,.j{font-family:AlegreyaSansSC-Black, Alegreya Sans SC Black;font-weight:800;fill:#000;}.j{font-size:36px;letter-spacing:0.07em;}</style></defs><title>logo</title><path class="a" d="M399,391.8c2.8-204.5,208.1-234.1,283.8-154.3,30.1,39.2-88,92.1-28.8,265.1.9,31-39.8,50.3-62.3,60.4C480,605.9,393.9,496.9,399,391.8Zm124.2,27.7c1.6,31.1,36.1,28.4,41.2,5.4C567.6,388.1,524.4,388.5,523.2,419.5Z" transform="translate(-69.4 -55.4)"/><path class="b" d="M962,319.5c184.9-91.1,170.4,6,133.5,30-53.1,42.6-116.9,62-178.4,90.1-104.5,52.7-191.6,60.4-225,19.8C658.5,423,671,371,686.7,328.7c41.8-113,147.7-194.5,230-233,162.4-78.2,295.4-42.2,187.5,103.9C1054.1,264.9,991.7,289.9,962,319.5ZM678.7,399.3c2.8,133.2,171.6,67,242.6,31.1,56.3-25.1,115.2-45.6,165.2-82.5,25.6-19.8,37.6-45.2,8.4-59.7-40.3-7.3-81.4,15.7-117.2,32.4-23.1,15.9-42,8.6-23.5-5.4,71.1-54.3,161.6-101.8,181.1-195.5,9.2-123.3-236.1-19.3-277.7,16.4C765.9,194.3,679.4,302.9,678.7,399.3Z" transform="translate(-69.4 -55.4)"/><path class="c" d="M310.6,348.8c71.9-37.6,69.9-35.8,62.8,1.1-6,17.8,1.9,56.2-11.7,58.9C284.5,448.1,96.9,561.7,71.1,446.9,46.4,260.4,297.2,117.3,394.5,125c62,.8,77.7,58.8,17.3,129C379.9,298.5,281.1,363.6,310.6,348.8ZM73.7,421.6c5.6,150.1,224,12.2,285.5-21.3,3.9-7,4.5-16.3,4.8-26.7,2.2-59.4,24.6-54.1-41.4-23.8-21.7,10.5-40.5,17.1-21.7-4.7C376.7,285,449.6,226.5,440.5,159,417.4,64.4,77.4,216.6,73.7,421.6Z" transform="translate(-69.4 -55.4)"/><path class="c" d="M833.3,572c-49.9,4.1-103-18.3-132.2-61.1-2.8-5.3-18.7-25-7.9-24.9,108.9,58.4,204.6-34.9,274.6-37.7,23-2.5,37.4,8.4,41.2,31.7C1008,549.4,872.4,574.5,833.3,572Zm-3.9-5.9c50.4,7.9,232.1-53.2,153.5-110.8-36.5-6.1-68.7,14.7-100.9,26.9-55.8,23.7-117.3,40.6-175.5,18.3,4.2,37.4,82.2,70.3,122.9,65.6Z" transform="translate(-69.4 -55.4)"/><path class="c" d="M378.7,482.5c-2.9,74.1-161.8,100.3-207.6,86.4-54.3-9.4-101.1-75.1-83.5-71.5,72.6,40.5,149.5-7.1,216.4-37C333.5,446.7,380.2,442.7,378.7,482.5ZM210.5,566.2c45.9,7.6,218.2-56.1,145-108.3-37-4.9-71.2,19.9-104.7,34-47.1,21.7-100.3,35.9-147,19.9-.5-.6-6.3-1.1-3.8,2.8C125.5,550,166.8,567.2,210.5,566.2Z" transform="translate(-69.4 -55.4)"/><path class="d" d="M523.2,419.5c2.8-33.5,43.4-28.4,41.3,3.8C560,451.6,523.2,447.4,523.2,419.5Z" transform="translate(-69.4 -55.4)"/><path class="e" d="M678.7,399.3c6.5-195.3,288.5-366,421.8-333.1,77.5,23.3,10.8,117.9-19.1,149-37.9,43-88.5,67.4-131.8,104.1-17.5,33,78.1-26.7,87.7-24.3,73.4-25.9,85.4,13.5,66.8,35.1-35,40.1-85.8,56.4-132.4,78.7C892.1,442.9,685.4,553.6,678.7,399.3Z" transform="translate(-69.4 -55.4)"/><path class="f" d="M73.7,421.4C90.8,166.7,527.7,31,427.6,219.2c-28.3,53.6-78.6,86.3-124.9,123.1-32.9,36.9,28.2,4.4,39.2-2.9,9.5-3.5,29.5-17.7,28.5-7.3a206,206,0,0,0-7.9,61.9c-5.2,18.6-77.8,42.2-83.9,48.6C156.3,511.4,74.2,506.5,73.7,421.4Z" transform="translate(-69.4 -55.4)"/><path class="g" d="M829.4,566.1c-91.4,5-147.7-82.8-117.1-63.5,121.1,40.5,230.6-77.4,279.6-42.2C1044.3,528,869,571.4,829.4,566.1Z" transform="translate(-69.4 -55.4)"/><path class="g" d="M210.5,566.2c-79,4-134.1-70.5-100.7-52.3,109.5,31.5,225.6-95.6,259.1-45.5C397.8,531.6,244.9,570.2,210.5,566.2Z" transform="translate(-69.4 -55.4)"/><text class="h" transform="translate(14.2 69.9)">●<tspan class="i" x="72" y="0">R</tspan><tspan class="j" x="117.4" y="0"> </tspan><tspan class="i" x="124.6" y="0">E</tspan><tspan class="j" x="163.6" y="0"> </tspan><tspan class="i" x="170.8" y="0">C</tspan></text></svg>