<svg xmlns="http://www.w3.org/2000/svg" viewBox="0 0 380.5 447.8"><defs><style>.a{fill:#d370ac;}.b{fill:#fefdfd;}.c{fill:#fdfcfd;}</style></defs><title>logo2</title><path class="a" d="M241.2,293.4c71.9-37.6,69.9-35.8,62.8,1.1-6,17.8,1.9,56.2-11.7,58.9C215.1,392.7,27.5,506.3,1.7,391.5-23,205,227.8,61.9,325.1,69.6c62,.8,77.7,58.8,17.3,129C310.5,243.1,211.7,308.2,241.2,293.4ZM4.3,366.2c5.6,150.1,224,12.2,285.5-21.3,3.9-7,4.5-16.3,4.8-26.7,2.2-59.4,24.6-54.1-41.4-23.8-21.7,10.5-40.5,17.1-21.7-4.7,75.8-60.1,148.7-118.6,139.6-186.1C348,9,8,161.2,4.3,366.2Z" transform="translate(0 -69.3)"/><path class="a" d="M309.3,427.1c-2.9,74.1-161.8,100.3-207.6,86.4C47.4,504.1.6,438.4,18.2,442c72.6,40.5,149.5-7.1,216.4-37C264.1,391.3,310.8,387.3,309.3,427.1ZM141.1,510.8c45.9,7.6,218.2-56.1,145-108.3-37-4.9-71.2,19.9-104.7,34-47.1,21.7-100.3,35.9-147,19.9-.5-.6-6.3-1.1-3.8,2.8C56.1,494.6,97.4,511.8,141.1,510.8Z" transform="translate(0 -69.3)"/><path class="b" d="M4.3,366c17.1-254.7,454-390.4,353.9-202.2-28.3,53.6-78.6,86.3-124.9,123.1-32.9,36.9,28.2,4.4,39.2-2.9,9.5-3.5,29.5-17.7,28.5-7.3a205.6,205.6,0,0,0-7.9,61.9c-5.2,18.6-77.8,42.2-83.9,48.6C86.9,456,4.8,451.1,4.3,366Z" transform="translate(0 -69.3)"/><path class="c" d="M141.1,510.8c-79,4-134.1-70.5-100.7-52.3C149.9,490,266,362.9,299.5,413,328.4,476.2,175.5,514.8,141.1,510.8Z" transform="translate(0 -69.3)"/></svg>